<svg xmlns="http://www.w3.org/2000/svg" xmlns:xlink="http://www.w3.org/1999/xlink" contentStyleType="text/css" data-diagram-type="DESCRIPTION" height="1301.5625px" preserveAspectRatio="none" style="width:1545px;height:1301px;background:#FFFFFF;" version="1.1" viewBox="0 0 1545 1301" width="1545.3125px" zoomAndPan="magnify"><?plantuml 1.2026.6?><defs/><g><!--cluster H? TH?NG TECHSTORE--><g class="cluster" data-qualified-name="H. TH.NG TECHSTORE" data-source-line="37" id="ent0010"><rect fill="#FFFFFF" height="1154.6875" rx="3.9063" ry="3.9063" style="stroke:#000000;stroke-width:1.5625;" width="504.1094" x="639.4219" y="65.9844"/><text fill="#000000" font-family="'Times New Roman'" font-size="23.4375" font-weight="700" lengthAdjust="spacing" textLength="301.9867" x="740.4832" y="90.8646">H&#7878; TH&#7888;NG TECHSTORE</text></g><!--entity UG--><g class="entity" data-qualified-name="H. TH.NG TECHSTORE.UG" data-source-line="38" id="ent0011"><ellipse cx="891.4831" cy="762.8623" fill="#FFFFFF" rx="210.0925" ry="45.7685" style="stroke:#000000;stroke-width:0.7813;"/><text fill="#000000" font-family="'Times New Roman'" font-size="23.4375" lengthAdjust="spacing" textLength="258.5335" x="762.2164" y="752.7505">&#272;&#259;ng nh&#7853;p/&#272;&#259;ng xu&#7845;t</text><text fill="#000000" font-family="'Times New Roman'" font-size="23.4375" lengthAdjust="spacing" textLength="342.7963" x="720.085" y="780.0332">&#272;&#7893;i m&#7853;t kh&#7849;u/C&#7853;p nh&#7853;t h&#7891; s&#417;</text></g><!--entity SHOP--><g class="entity" data-qualified-name="H. TH.NG TECHSTORE.SHOP" data-source-line="39" id="ent0012"><ellipse cx="891.4873" cy="180.0518" fill="#FFFFFF" rx="225.6904" ry="57.1455" style="stroke:#000000;stroke-width:0.7813;"/><text fill="#000000" font-family="'Times New Roman'" font-size="23.4375" lengthAdjust="spacing" textLength="249.424" x="766.7753" y="158.558">Mua s&#7855;m &amp; Giao d&#7883;ch</text><text fill="#000000" font-family="'Times New Roman'" font-size="23.4375" lengthAdjust="spacing" textLength="344.8219" x="719.0763" y="185.8407">(t&#236;m ki&#7871;m, so s&#225;nh, &#273;&#7863;t h&#224;ng,</text><text fill="#000000" font-family="'Times New Roman'" font-size="23.4375" lengthAdjust="spacing" textLength="299.8581" x="741.5582" y="213.1234">thanh to&#225;n, theo d&#245;i &#273;&#417;n)</text></g><!--entity WAR--><g class="entity" data-qualified-name="H. TH.NG TECHSTORE.WAR" data-source-line="40" id="ent0013"><ellipse cx="891.4826" cy="383.1684" fill="#FFFFFF" rx="202.1701" ry="44.184" style="stroke:#000000;stroke-width:0.7813;"/><text fill="#000000" font-family="'Times New Roman'" font-size="23.4375" lengthAdjust="spacing" textLength="216.9113" x="783.0269" y="371.9752">B&#7843;o h&#224;nh &amp; H&#7895; tr&#7907;</text><text fill="#000000" font-family="'Times New Roman'" font-size="23.4375" lengthAdjust="spacing" textLength="330.9402" x="726.0125" y="399.258">(tra c&#7913;u, y&#234;u c&#7847;u BH, ticket)</text></g><!--entity TECH--><g class="entity" data-qualified-name="H. TH.NG TECHSTORE.TECH" data-source-line="41" id="ent0014"><ellipse cx="891.4874" cy="572.2381" fill="#FFFFFF" rx="197.2843" ry="43.2069" style="stroke:#000000;stroke-width:0.7813;"/><text fill="#000000" font-family="'Times New Roman'" font-size="23.4375" lengthAdjust="spacing" textLength="163.5361" x="809.7194" y="559.1766">X&#7917; l&#253; k&#7929; thu&#7853;t</text><text fill="#000000" font-family="'Times New Roman'" font-size="23.4375" lengthAdjust="spacing" textLength="331.0661" x="725.9544" y="586.4593">(ti&#7871;p nh&#7853;n, s&#7917;a ch&#7919;a, ticket)</text></g><!--entity INV--><g class="entity" data-qualified-name="H. TH.NG TECHSTORE.INV" data-source-line="42" id="ent0015"><ellipse cx="891.4772" cy="953.4861" fill="#FFFFFF" rx="197.0397" ry="43.1579" style="stroke:#000000;stroke-width:0.7813;"/><text fill="#000000" font-family="'Times New Roman'" font-size="23.4375" lengthAdjust="spacing" textLength="145.5231" x="818.7156" y="939.6882">Qu&#7843;n tr&#7883; kho</text><text fill="#000000" font-family="'Times New Roman'" font-size="23.4375" lengthAdjust="spacing" textLength="334.774" x="724.0902" y="966.9709">(nh&#7853;p l&#244;, IMEI/Serial, &#273;&#7893;i tr&#7843;)</text></g><!--entity ADM--><g class="entity" data-qualified-name="H. TH.NG TECHSTORE.ADM" data-source-line="43" id="ent0016"><ellipse cx="891.4909" cy="1147.2388" fill="#FFFFFF" rx="227.0534" ry="49.1607" style="stroke:#000000;stroke-width:0.7813;"/><text fill="#000000" font-family="'Times New Roman'" font-size="23.4375" lengthAdjust="spacing" textLength="207.5958" x="787.693" y="1129.7221">Qu&#7843;n tr&#7883; h&#7879; th&#7889;ng</text><text fill="#000000" font-family="'Times New Roman'" font-size="23.4375" lengthAdjust="spacing" textLength="417.8238" x="682.579" y="1157.0048">(danh m&#7909;c, gi&#225;, b&#225;o c&#225;o, t&#224;i kho&#7843;n)</text></g><!--entity C--><g class="entity" data-qualified-name="C" data-source-line="28" id="ent0001"><ellipse cx="78.7376" cy="204.6875" fill="#FFFFFF" rx="12.5" ry="12.5" style="stroke:#000000;stroke-width:0.7813;"/><path d="M78.7376,217.1875 L78.7376,259.375 M58.4251,229.6875 L99.0501,229.6875 M78.7376,259.375 L58.4251,282.8125 M78.7376,259.375 L99.0501,282.8125" fill="none" style="stroke:#000000;stroke-width:0.7813;"/><text fill="#000000" font-family="'Times New Roman'" font-size="23.4375" lengthAdjust="spacing" textLength="138.7253" x="9.375" y="306.9115">Kh&#225;ch h&#224;ng</text></g><!--entity G--><g class="entity" data-qualified-name="G" data-source-line="29" id="ent0002"><ellipse cx="406.2572" cy="96.875" fill="#FFFFFF" rx="12.5" ry="12.5" style="stroke:#000000;stroke-width:0.7813;"/><path d="M406.2572,109.375 L406.2572,151.5625 M385.9447,121.875 L426.5697,121.875 M406.2572,151.5625 L385.9447,175 M406.2572,151.5625 L426.5697,175" fill="none" style="stroke:#000000;stroke-width:0.7813;"/><text fill="#000000" font-family="'Times New Roman'" font-size="23.4375" lengthAdjust="spacing" textLength="172.5769" x="319.9688" y="199.099">Kh&#225;ch v&#227;ng lai</text></g><!--entity T--><g class="entity" data-qualified-name="T" data-source-line="30" id="ent0003"><ellipse cx="406.2637" cy="525" fill="#FFFFFF" rx="12.5" ry="12.5" style="stroke:#000000;stroke-width:0.7813;"/><path d="M406.2637,537.5 L406.2637,579.6875 M385.9512,550 L426.5762,550 M406.2637,579.6875 L385.9512,603.125 M406.2637,579.6875 L426.5762,603.125" fill="none" style="stroke:#000000;stroke-width:0.7813;"/><text fill="#000000" font-family="'Times New Roman'" font-size="23.4375" lengthAdjust="spacing" textLength="156.2462" x="328.1406" y="627.224">K&#7929; thu&#7853;t vi&#234;n</text></g><!--entity W--><g class="entity" data-qualified-name="W" data-source-line="31" id="ent0004"><ellipse cx="406.2571" cy="953.125" fill="#FFFFFF" rx="12.5" ry="12.5" style="stroke:#000000;stroke-width:0.7813;"/><path d="M406.2571,965.625 L406.2571,1007.8125 M385.9446,978.125 L426.5696,978.125 M406.2571,1007.8125 L385.9446,1031.25 M406.2571,1007.8125 L426.5696,1031.25" fill="none" style="stroke:#000000;stroke-width:0.7813;"/><text fill="#000000" font-family="'Times New Roman'" font-size="23.4375" lengthAdjust="spacing" textLength="99.0143" x="356.75" y="1055.349">QTV kho</text></g><!--entity A--><g class="entity" data-qualified-name="A" data-source-line="32" id="ent0005"><ellipse cx="406.2569" cy="1175" fill="#FFFFFF" rx="12.5" ry="12.5" style="stroke:#000000;stroke-width:0.7813;"/><path d="M406.2569,1187.5 L406.2569,1229.6875 M385.9444,1200 L426.5694,1200 M406.2569,1229.6875 L385.9444,1253.125 M406.2569,1229.6875 L426.5694,1253.125" fill="none" style="stroke:#000000;stroke-width:0.7813;"/><text fill="#000000" font-family="'Times New Roman'" font-size="23.4375" lengthAdjust="spacing" textLength="75.1076" x="368.7031" y="1277.224">Admin</text></g><!--entity F--><g class="entity" data-qualified-name="F" data-source-line="33" id="ent0006"><ellipse cx="1406.6344" cy="243.75" fill="#FFFFFF" rx="12.5" ry="12.5" style="stroke:#000000;stroke-width:0.7813;"/><path d="M1406.6344,256.25 L1406.6344,298.4375 M1386.3219,268.75 L1426.9469,268.75 M1406.6344,298.4375 L1386.3219,321.875 M1406.6344,298.4375 L1426.9469,321.875" fill="none" style="stroke:#000000;stroke-width:0.7813;"/><text fill="#000000" font-family="'Times New Roman'" font-size="23.4375" lengthAdjust="spacing" textLength="184.1125" x="1314.5781" y="345.974">&#272;&#417;n v&#7883; t&#224;i ch&#237;nh</text></g><!--entity P--><g class="entity" data-qualified-name="P" data-source-line="34" id="ent0007"><ellipse cx="1406.6267" cy="21.875" fill="#FFFFFF" rx="12.5" ry="12.5" style="stroke:#000000;stroke-width:0.7813;"/><path d="M1406.6267,34.375 L1406.6267,76.5625 M1386.3142,46.875 L1426.9392,46.875 M1406.6267,76.5625 L1386.3142,100 M1406.6267,76.5625 L1426.9392,100" fill="none" style="stroke:#000000;stroke-width:0.7813;"/><text fill="#000000" font-family="'Times New Roman'" font-size="23.4375" lengthAdjust="spacing" textLength="232.4409" x="1290.4063" y="124.099">C&#7893;ng TT/Ng&#226;n h&#224;ng</text></g><!--entity S--><g class="entity" data-qualified-name="S" data-source-line="35" id="ent0008"><ellipse cx="1406.6262" cy="1100" fill="#FFFFFF" rx="12.5" ry="12.5" style="stroke:#000000;stroke-width:0.7813;"/><path d="M1406.6262,1112.5 L1406.6262,1154.6875 M1386.3137,1125 L1426.9387,1125 M1406.6262,1154.6875 L1386.3137,1178.125 M1406.6262,1154.6875 L1426.9387,1178.125" fill="none" style="stroke:#000000;stroke-width:0.7813;"/><text fill="#000000" font-family="'Times New Roman'" font-size="23.4375" lengthAdjust="spacing" textLength="226.6273" x="1293.3125" y="1202.224">&#272;&#7889;i t&#225;c v&#7853;n chuy&#7875;n</text></g><!--link C to G--><g class="link" data-entity-1="ent0001" data-entity-2="ent0002" data-link-type="extension" data-source-line="36" id="lnk9"><path d="M148.5938,198.0156 C198.5781,198.0156 238.0469,198.0156 291.4531,198.0156" fill="none" id="C-to-G" style="stroke:#000000;stroke-width:1.5625;"/><polygon fill="none" points="319.5781,198.0156,291.4531,188.6406,291.4531,207.3906,319.5781,198.0156" style="stroke:#000000;stroke-width:1.5625;stroke-linejoin:miter;stroke-miterlimit:10;"/></g><!--link G to SHOP--><g class="link" data-entity-1="ent0002" data-entity-2="ent0012" data-link-type="dependency" data-source-line="45" id="lnk17"><path d="M493.0156,163.7656 C543.7188,163.7656 602.3438,163.7656 666.4219,163.7656" fill="none" id="G-to-SHOP" style="stroke:#000000;stroke-width:1.5625;"/><polygon fill="#000000" points="674.2344,163.7656,660.1719,157.5156,666.4219,163.7656,660.1719,170.0156,674.2344,163.7656" style="stroke:#000000;stroke-width:1.5625;stroke-linejoin:miter;stroke-miterlimit:10;"/></g><!--link G to WAR--><g class="link" data-entity-1="ent0002" data-entity-2="ent0013" data-link-type="dependency" data-source-line="46" id="lnk18"><path d="M405.6563,204.8125 C405.6563,271.25 405.6563,368.4375 405.6563,368.4375 C405.6563,368.4375 556.4063,368.4375 692.3594,368.4375" fill="none" id="G-to-WAR" style="stroke:#000000;stroke-width:1.5625;"/><polygon fill="#000000" points="700.1719,368.4375,686.1094,362.1875,692.3594,368.4375,686.1094,374.6875,700.1719,368.4375" style="stroke:#000000;stroke-width:1.5625;stroke-linejoin:miter;stroke-miterlimit:10;"/></g><!--link C to UG--><g class="link" data-entity-1="ent0001" data-entity-2="ent0011" data-link-type="dependency" data-source-line="47" id="lnk19"><path d="M55.6563,312.7969 C55.6563,451.3125 55.6563,778.1094 55.6563,778.1094 C55.6563,778.1094 437.3125,778.1094 684.5313,778.1094" fill="none" id="C-to-UG" style="stroke:#000000;stroke-width:1.5625;"/><polygon fill="#000000" points="692.3438,778.1094,678.2813,771.8594,684.5313,778.1094,678.2813,784.3594,692.3438,778.1094" style="stroke:#000000;stroke-width:1.5625;stroke-linejoin:miter;stroke-miterlimit:10;"/></g><!--link C to SHOP--><g class="link" data-entity-1="ent0001" data-entity-2="ent0012" data-link-type="dependency" data-source-line="48" id="lnk20"><path d="M148.7344,220.9063 C277.3438,220.9063 546.4219,220.9063 723.4063,220.9063" fill="none" id="C-to-SHOP" style="stroke:#000000;stroke-width:1.5625;"/><polygon fill="#000000" points="731.2188,220.9063,717.1563,214.6563,723.4063,220.9063,717.1563,227.1563,731.2188,220.9063" style="stroke:#000000;stroke-width:1.5625;stroke-linejoin:miter;stroke-miterlimit:10;"/></g><!--link C to WAR--><g class="link" data-entity-1="ent0001" data-entity-2="ent0013" data-link-type="dependency" data-source-line="49" id="lnk21"><path d="M102.5313,312.9844 C102.5313,352.9844 102.5313,397.9063 102.5313,397.9063 C102.5313,397.9063 458.6719,397.9063 692.1875,397.9063" fill="none" id="C-to-WAR" style="stroke:#000000;stroke-width:1.5625;"/><polygon fill="#000000" points="700,397.9063,685.9375,391.6563,692.1875,397.9063,685.9375,404.1563,700,397.9063" style="stroke:#000000;stroke-width:1.5625;stroke-linejoin:miter;stroke-miterlimit:10;"/></g><!--link T to UG--><g class="link" data-entity-1="ent0003" data-entity-2="ent0011" data-link-type="dependency" data-source-line="50" id="lnk22"><path d="M469.7188,633.0781 C469.7188,683.7344 469.7188,747.6094 469.7188,747.6094 C469.7188,747.6094 575.3281,747.6094 684.5156,747.6094" fill="none" id="T-to-UG" style="stroke:#000000;stroke-width:1.5625;"/><polygon fill="#000000" points="692.3281,747.6094,678.2656,741.3594,684.5156,747.6094,678.2656,753.8594,692.3281,747.6094" style="stroke:#000000;stroke-width:1.5625;stroke-linejoin:miter;stroke-miterlimit:10;"/></g><!--link T to TECH--><g class="link" data-entity-1="ent0003" data-entity-2="ent0014" data-link-type="dependency" data-source-line="51" id="lnk23"><path d="M484.7656,572.2344 C541.3594,572.2344 612.5625,572.2344 685.9219,572.2344" fill="none" id="T-to-TECH" style="stroke:#000000;stroke-width:1.5625;"/><polygon fill="#000000" points="693.7344,572.2344,679.6719,565.9844,685.9219,572.2344,679.6719,578.4844,693.7344,572.2344" style="stroke:#000000;stroke-width:1.5625;stroke-linejoin:miter;stroke-miterlimit:10;"/></g><!--link W to UG--><g class="link" data-entity-1="ent0004" data-entity-2="ent0011" data-link-type="dependency" data-source-line="52" id="lnk24"><path d="M456.1563,958.7813 C536.4375,958.7813 685.3438,958.7813 685.3438,958.7813 C685.3438,958.7813 685.3438,819.25 685.3438,780.125" fill="none" id="W-to-UG" style="stroke:#000000;stroke-width:1.5625;"/><polygon fill="#000000" points="685.3438,772.3125,679.0938,786.375,685.3438,780.125,691.5938,786.375,685.3438,772.3125" style="stroke:#000000;stroke-width:1.5625;stroke-linejoin:miter;stroke-miterlimit:10;"/></g><!--link W to INV--><g class="link" data-entity-1="ent0004" data-entity-2="ent0015" data-link-type="dependency" data-source-line="53" id="lnk25"><path d="M456.3594,977.7031 C519.7969,977.7031 624.4375,977.7031 719.125,977.7031" fill="none" id="W-to-INV" style="stroke:#000000;stroke-width:1.5625;"/><polygon fill="#000000" points="726.9375,977.7031,712.875,971.4531,719.125,977.7031,712.875,983.9531,726.9375,977.7031" style="stroke:#000000;stroke-width:1.5625;stroke-linejoin:miter;stroke-miterlimit:10;"/></g><!--link A to UG--><g class="link" data-entity-1="ent0005" data-entity-2="ent0011" data-link-type="dependency" data-source-line="54" id="lnk26"><path d="M405.6563,1161.1094 C405.6563,1127.4375 405.6563,1092.3906 405.6563,1092.3906 C405.6563,1092.3906 690.0313,1092.3906 690.0313,1092.3906 C690.0313,1092.3906 690.0313,846.7813 690.0313,784.4063" fill="none" id="A-to-UG" style="stroke:#000000;stroke-width:1.5625;"/><polygon fill="#000000" points="690.0313,776.5938,683.7813,790.6563,690.0313,784.4063,696.2813,790.6563,690.0313,776.5938" style="stroke:#000000;stroke-width:1.5625;stroke-linejoin:miter;stroke-miterlimit:10;"/></g><!--link A to ADM--><g class="link" data-entity-1="ent0005" data-entity-2="ent0016" data-link-type="dependency" data-source-line="55" id="lnk27"><path d="M444.3438,1179.0625 C502.5313,1179.0625 609.4531,1179.0625 708.125,1179.0625" fill="none" id="A-to-ADM" style="stroke:#000000;stroke-width:1.5625;"/><polygon fill="#000000" points="715.9375,1179.0625,701.875,1172.8125,708.125,1179.0625,701.875,1185.3125,715.9375,1179.0625" style="stroke:#000000;stroke-width:1.5625;stroke-linejoin:miter;stroke-miterlimit:10;"/></g><!--link SHOP to F--><g class="link" data-entity-1="ent0012" data-entity-2="ent0006" data-link-type="dependency" data-source-line="56" id="lnk28"><path d="M1108.7813,196.125 C1108.7813,223.1563 1108.7813,274.8125 1108.7813,274.8125 C1108.7813,274.8125 1218.7813,274.8125 1306.2031,274.8125" fill="none" id="SHOP-to-F" style="stroke:#000000;stroke-width:1.5625;stroke-dasharray:10.9375,10.9375;"/><polygon fill="#000000" points="1314.0156,274.8125,1299.9531,268.5625,1306.2031,274.8125,1299.9531,281.0625,1314.0156,274.8125" style="stroke:#000000;stroke-width:1.5625;stroke-linejoin:miter;stroke-miterlimit:10;"/><text fill="#000000" font-family="'Times New Roman'" font-size="23.4375" lengthAdjust="spacing" textLength="113.4109" x="1058" y="298.1302">&#171;tr&#7843; g&#243;p&#187;</text></g><!--link SHOP to P--><g class="link" data-entity-1="ent0012" data-entity-2="ent0007" data-link-type="dependency" data-source-line="57" id="lnk29"><path d="M1117.7031,180.0469 C1213.8125,180.0469 1304.0938,180.0469 1304.0938,180.0469 C1304.0938,180.0469 1304.0938,163.4844 1304.0938,137.5781" fill="none" id="SHOP-to-P" style="stroke:#000000;stroke-width:1.5625;stroke-dasharray:10.9375,10.9375;"/><polygon fill="#000000" points="1304.0938,129.7656,1297.8438,143.8281,1304.0938,137.5781,1310.3438,143.8281,1304.0938,129.7656" style="stroke:#000000;stroke-width:1.5625;stroke-linejoin:miter;stroke-miterlimit:10;"/><text fill="#000000" font-family="'Times New Roman'" font-size="23.4375" lengthAdjust="spacing" textLength="156.9901" x="1237.6094" y="203.3646">&#171;thanh to&#225;n&#187;</text></g><!--link ADM to S--><g class="link" data-entity-1="ent0016" data-entity-2="ent0008" data-link-type="dependency" data-source-line="58" id="lnk30"><path d="M1118.9375,1147.2344 C1179.0313,1147.2344 1233.5469,1147.2344 1284.7656,1147.2344" fill="none" id="ADM-to-S" style="stroke:#000000;stroke-width:1.5625;stroke-dasharray:10.9375,10.9375;"/><polygon fill="#000000" points="1292.5781,1147.2344,1278.5156,1140.9844,1284.7656,1147.2344,1278.5156,1153.4844,1292.5781,1147.2344" style="stroke:#000000;stroke-width:1.5625;stroke-linejoin:miter;stroke-miterlimit:10;"/><text fill="#000000" font-family="'Times New Roman'" font-size="23.4375" lengthAdjust="spacing" textLength="164.9551" x="1040.125" y="1170.5521">&#171;v&#7853;n chuy&#7875;n&#187;</text></g><?plantuml-src XLJBRjD05DtdAww2X40ob2vWWL2arBHfXHfAOoYBRWPxwXd5dediSKjvh91WmQOLGcm94K8WAXQ04B4G2rVyX_-4EpDnOXvDlR0czvmvvzupuwHzBWOa8J7S8tu_J6Gc0bT6Ce4pA-Pff5D6oaWWzxW8OOT4AQqX0TqXMQHMf51T4bDeUZocANJf7cpAc8Zc_xaz_e32ukKwEE1Ok5IhH5nGjJ-W81F5P0qGCg0f7S2L-lw4YBukBYxMDGOu6WbfJ-r751BgAoB2gDv_EqdatcJiI-Rv6_GOz_k2fYairY3YAvaidHgSfSaaeCb99eQYCpc9aANK9oaztQmYphMRaEOPJa8xtR0YpZMSaEOPJW_cTCiPTQxfbFQlRIEYEmgKX8I7J470DPTBqMYOau3c3LOCVGQiU2t29f0KtB-GtMA4Nq94k44xKxJCluDYMJa-Kh3BYm_2u5w5t_BkG9z9KzogYkqWvfRNhah71x-60dRB_3ceuZK7dnL7WXdEIiLno_mbzk1v2zsmU2DgpMxCPChyaAF4q4UnyP50eMo_p9zOkrx3XGiN7hMm_sbOq5mjywVWuVkWsm5lsLtjUJStbvlmi07LpT7Anq_GN31K7InCVjt7kT-gRQ5jNtA8JGfzfBpF5bnDj7m5hCnVGFfhQBgutQaBhsS4qdByAOQpqE54Ge0X-6nRd5F5nnZwl1p_Z1r89QJ5K307ZW_ByJTbftUsXM94C3nQ11qy2Oe2nLUEB0pql9rwzUP6tN6f78-asS_G4-T-1Iefyv6sJ0ZuPVu-Ss2_-93XUlmkWwLLLCO_1Agiu5PxiwvtjyoF82f-GBzs6RIORdqI0VQM8WtLCOfFv4yzdNbTy1OgZ8Hfwhc-FQXbSqUNBmwihI-lBVHemabaqj3H8tSyicfhtJidYg7vC-mGBua8KJNGqSLb_jPt8EJ5q85xnL22Zo_7taDqrzkjSllwUkDneuDNg6L3jKiTXsjMUBBk37Mdg5UXTc7ctQfgTg6xRbSbkz1sMWWkNcp12bo5QzVCc10MdmUjrWpRiDZi8Y28cmtMCzYVtqAhzHi0?></g></svg>