<svg xmlns="http://www.w3.org/2000/svg" xmlns:xlink="http://www.w3.org/1999/xlink" contentStyleType="text/css" data-diagram-type="MINDMAP" height="798px" preserveAspectRatio="none" style="width:1279px;height:798px;background:#FFFFFF;" version="1.1" viewBox="0 0 1279 798" width="1279px" zoomAndPan="magnify"><?plantuml 1.2026.6?><defs/><g><rect fill="#4A79A8" height="43.2813" rx="12.5" ry="12.5" style="stroke:#4A79A8;stroke-width:1.5;" width="121.4941" x="593.1455" y="376.9883"/><text fill="#FFFFFF" font-family="Arial" font-size="20" lengthAdjust="spacing" textLength="101.4941" x="603.1455" y="405.5527">TechStore</text><rect fill="#CFE0F3" height="39.7891" rx="12.5" ry="12.5" style="stroke:#4A79A8;stroke-width:1.5;" width="216.1475" x="764.6396" y="139.5781"/><text fill="#000000" font-family="Arial" font-size="17" font-weight="700" lengthAdjust="spacing" textLength="196.1475" x="774.6396" y="165.3579">1. Qu&#7843;n l&#253; s&#7843;n ph&#7849;m</text><rect fill="#E8F1FB" height="39.7891" rx="12.5" ry="12.5" style="stroke:#4A79A8;stroke-width:1.5;" width="188.0576" x="1030.7871" y="20"/><text fill="#000000" font-family="Arial" font-size="17" lengthAdjust="spacing" textLength="168.0576" x="1040.7871" y="45.7798">T&#236;m ki&#7871;m s&#7843;n ph&#7849;m</text><path d="M980.7871,159.4727 L990.7871,159.4727 C1005.7871,159.4727 1005.7871,39.8945 1020.7871,39.8945 L1030.7871,39.8945" fill="none" style="stroke:#181818;stroke-width:1;"/><rect fill="#E8F1FB" height="39.7891" rx="12.5" ry="12.5" style="stroke:#4A79A8;stroke-width:1.5;" width="172.394" x="1030.7871" y="79.7891"/><text fill="#000000" font-family="Arial" font-size="17" lengthAdjust="spacing" textLength="152.394" x="1040.7871" y="105.5688">L&#7885;c theo th&#244;ng s&#7889;</text><path d="M980.7871,159.4727 L990.7871,159.4727 C1005.7871,159.4727 1005.7871,99.6836 1020.7871,99.6836 L1030.7871,99.6836" fill="none" style="stroke:#181818;stroke-width:1;"/><rect fill="#E8F1FB" height="39.7891" rx="12.5" ry="12.5" style="stroke:#4A79A8;stroke-width:1.5;" width="220.9619" x="1030.7871" y="139.5781"/><text fill="#000000" font-family="Arial" font-size="17" lengthAdjust="spacing" textLength="200.9619" x="1040.7871" y="165.3579">Xem chi ti&#7871;t &amp; th&#244;ng s&#7889;</text><path d="M980.7871,159.4727 L990.7871,159.4727 C1005.7871,159.4727 1005.7871,159.4727 1020.7871,159.4727 L1030.7871,159.4727" fill="none" style="stroke:#181818;stroke-width:1;"/><rect fill="#E8F1FB" height="39.7891" rx="12.5" ry="12.5" style="stroke:#4A79A8;stroke-width:1.5;" width="176.8184" x="1030.7871" y="199.3672"/><text fill="#000000" font-family="Arial" font-size="17" lengthAdjust="spacing" textLength="156.8184" x="1040.7871" y="225.147">So s&#225;nh s&#7843;n ph&#7849;m</text><path d="M980.7871,159.4727 L990.7871,159.4727 C1005.7871,159.4727 1005.7871,219.2617 1020.7871,219.2617 L1030.7871,219.2617" fill="none" style="stroke:#181818;stroke-width:1;"/><rect fill="#E8F1FB" height="39.7891" rx="12.5" ry="12.5" style="stroke:#4A79A8;stroke-width:1.5;" width="149.1851" x="1030.7871" y="259.1563"/><text fill="#000000" font-family="Arial" font-size="17" lengthAdjust="spacing" textLength="129.1851" x="1040.7871" y="284.936">G&#7907;i &#253; mua k&#232;m</text><path d="M980.7871,159.4727 L990.7871,159.4727 C1005.7871,159.4727 1005.7871,279.0508 1020.7871,279.0508 L1030.7871,279.0508" fill="none" style="stroke:#181818;stroke-width:1;"/><path d="M714.6396,398.6289 L724.6396,398.6289 C739.6396,398.6289 739.6396,159.4727 754.6396,159.4727 L764.6396,159.4727" fill="none" style="stroke:#181818;stroke-width:1;"/><rect fill="#CFE0F3" height="39.7891" rx="12.5" ry="12.5" style="stroke:#4A79A8;stroke-width:1.5;" width="133.231" x="764.6396" y="438.5234"/><text fill="#000000" font-family="Arial" font-size="17" font-weight="700" lengthAdjust="spacing" textLength="113.231" x="774.6396" y="464.3032">2. Giao d&#7883;ch</text><rect fill="#E8F1FB" height="39.7891" rx="12.5" ry="12.5" style="stroke:#4A79A8;stroke-width:1.5;" width="165.0146" x="947.8706" y="318.9453"/><text fill="#000000" font-family="Arial" font-size="17" lengthAdjust="spacing" textLength="145.0146" x="957.8706" y="344.7251">Qu&#7843;n l&#253; gi&#7887; h&#224;ng</text><path d="M897.8706,458.418 L907.8706,458.418 C922.8706,458.418 922.8706,338.8398 937.8706,338.8398 L947.8706,338.8398" fill="none" style="stroke:#181818;stroke-width:1;"/><rect fill="#E8F1FB" height="39.7891" rx="12.5" ry="12.5" style="stroke:#4A79A8;stroke-width:1.5;" width="98.4175" x="947.8706" y="378.7344"/><text fill="#000000" font-family="Arial" font-size="17" lengthAdjust="spacing" textLength="78.4175" x="957.8706" y="404.5142">&#272;&#7863;t h&#224;ng</text><path d="M897.8706,458.418 L907.8706,458.418 C922.8706,458.418 922.8706,398.6289 937.8706,398.6289 L947.8706,398.6289" fill="none" style="stroke:#181818;stroke-width:1;"/><rect fill="#E8F1FB" height="39.7891" rx="12.5" ry="12.5" style="stroke:#4A79A8;stroke-width:1.5;" width="164.3008" x="947.8706" y="438.5234"/><text fill="#000000" font-family="Arial" font-size="17" lengthAdjust="spacing" textLength="144.3008" x="957.8706" y="464.3032">Tr&#7843; g&#243;p (l&#7897; tr&#236;nh)</text><path d="M897.8706,458.418 L907.8706,458.418 C922.8706,458.418 922.8706,458.418 937.8706,458.418 L947.8706,458.418" fill="none" style="stroke:#181818;stroke-width:1;"/><rect fill="#E8F1FB" height="39.7891" rx="12.5" ry="12.5" style="stroke:#4A79A8;stroke-width:1.5;" width="202.3184" x="947.8706" y="498.3125"/><text fill="#000000" font-family="Arial" font-size="17" lengthAdjust="spacing" textLength="182.3184" x="957.8706" y="524.0923">Thanh to&#225;n &#273;&#417;n h&#224;ng</text><path d="M897.8706,458.418 L907.8706,458.418 C922.8706,458.418 922.8706,518.207 937.8706,518.207 L947.8706,518.207" fill="none" style="stroke:#181818;stroke-width:1;"/><rect fill="#E8F1FB" height="39.7891" rx="12.5" ry="12.5" style="stroke:#4A79A8;stroke-width:1.5;" width="178.8687" x="947.8706" y="558.1016"/><text fill="#000000" font-family="Arial" font-size="17" lengthAdjust="spacing" textLength="158.8687" x="957.8706" y="583.8813">Theo d&#245;i &#273;&#417;n h&#224;ng</text><path d="M897.8706,458.418 L907.8706,458.418 C922.8706,458.418 922.8706,577.9961 937.8706,577.9961 L947.8706,577.9961" fill="none" style="stroke:#181818;stroke-width:1;"/><path d="M714.6396,398.6289 L724.6396,398.6289 C739.6396,398.6289 739.6396,458.418 754.6396,458.418 L764.6396,458.418" fill="none" style="stroke:#181818;stroke-width:1;"/><rect fill="#CFE0F3" height="39.7891" rx="12.5" ry="12.5" style="stroke:#4A79A8;stroke-width:1.5;" width="237.2813" x="764.6396" y="677.6797"/><text fill="#000000" font-family="Arial" font-size="17" font-weight="700" lengthAdjust="spacing" textLength="217.2813" x="774.6396" y="703.4595">3. B&#7843;o h&#224;nh &amp; h&#7853;u m&#227;i</text><rect fill="#E8F1FB" height="39.7891" rx="12.5" ry="12.5" style="stroke:#4A79A8;stroke-width:1.5;" width="169.248" x="1051.9209" y="617.8906"/><text fill="#000000" font-family="Arial" font-size="17" lengthAdjust="spacing" textLength="149.248" x="1061.9209" y="643.6704">Tra c&#7913;u b&#7843;o h&#224;nh</text><path d="M1001.9209,697.5742 L1011.9209,697.5742 C1026.9209,697.5742 1026.9209,637.7852 1041.9209,637.7852 L1051.9209,637.7852" fill="none" style="stroke:#181818;stroke-width:1;"/><rect fill="#E8F1FB" height="39.7891" rx="12.5" ry="12.5" style="stroke:#4A79A8;stroke-width:1.5;" width="206.4688" x="1051.9209" y="677.6797"/><text fill="#000000" font-family="Arial" font-size="17" lengthAdjust="spacing" textLength="186.4688" x="1061.9209" y="703.4595">G&#7917;i y&#234;u c&#7847;u b&#7843;o h&#224;nh</text><path d="M1001.9209,697.5742 L1011.9209,697.5742 C1026.9209,697.5742 1026.9209,697.5742 1041.9209,697.5742 L1051.9209,697.5742" fill="none" style="stroke:#181818;stroke-width:1;"/><rect fill="#E8F1FB" height="39.7891" rx="12.5" ry="12.5" style="stroke:#4A79A8;stroke-width:1.5;" width="199.1807" x="1051.9209" y="737.4688"/><text fill="#000000" font-family="Arial" font-size="17" lengthAdjust="spacing" textLength="179.1807" x="1061.9209" y="763.2485">G&#7917;i &amp; theo d&#245;i Ticket</text><path d="M1001.9209,697.5742 L1011.9209,697.5742 C1026.9209,697.5742 1026.9209,757.3633 1041.9209,757.3633 L1051.9209,757.3633" fill="none" style="stroke:#181818;stroke-width:1;"/><path d="M714.6396,398.6289 L724.6396,398.6289 C739.6396,398.6289 739.6396,697.5742 754.6396,697.5742 L764.6396,697.5742" fill="none" style="stroke:#181818;stroke-width:1;"/><rect fill="#CFE0F3" height="39.7891" rx="12.5" ry="12.5" style="stroke:#4A79A8;stroke-width:1.5;" width="163.5952" x="379.5503" y="109.6836"/><text fill="#000000" font-family="Arial" font-size="17" font-weight="700" lengthAdjust="spacing" textLength="143.5952" x="389.5503" y="135.4634">4. Qu&#7843;n tr&#7883; kho</text><rect fill="#E8F1FB" height="39.7891" rx="12.5" ry="12.5" style="stroke:#4A79A8;stroke-width:1.5;" width="177.0923" x="152.458" y="20"/><text fill="#000000" font-family="Arial" font-size="17" lengthAdjust="spacing" textLength="157.0923" x="162.458" y="45.7798">Nh&#7853;p h&#224;ng theo l&#244;</text><path d="M379.5503,129.5781 L369.5503,129.5781 C354.5503,129.5781 354.5503,39.8945 339.5503,39.8945 L329.5503,39.8945" fill="none" style="stroke:#181818;stroke-width:1;"/><rect fill="#E8F1FB" height="39.7891" rx="12.5" ry="12.5" style="stroke:#4A79A8;stroke-width:1.5;" width="180.2051" x="149.3452" y="79.7891"/><text fill="#000000" font-family="Arial" font-size="17" lengthAdjust="spacing" textLength="160.2051" x="159.3452" y="105.5688">Qu&#7843;n l&#253; IMEI/Serial</text><path d="M379.5503,129.5781 L369.5503,129.5781 C354.5503,129.5781 354.5503,99.6836 339.5503,99.6836 L329.5503,99.6836" fill="none" style="stroke:#181818;stroke-width:1;"/><rect fill="#E8F1FB" height="39.7891" rx="12.5" ry="12.5" style="stroke:#4A79A8;stroke-width:1.5;" width="163.0059" x="166.5444" y="139.5781"/><text fill="#000000" font-family="Arial" font-size="17" lengthAdjust="spacing" textLength="143.0059" x="176.5444" y="165.3579">Theo d&#245;i t&#7891;n kho</text><path d="M379.5503,129.5781 L369.5503,129.5781 C354.5503,129.5781 354.5503,159.4727 339.5503,159.4727 L329.5503,159.4727" fill="none" style="stroke:#181818;stroke-width:1;"/><rect fill="#E8F1FB" height="39.7891" rx="12.5" ry="12.5" style="stroke:#4A79A8;stroke-width:1.5;" width="123.4028" x="206.1475" y="199.3672"/><text fill="#000000" font-family="Arial" font-size="17" lengthAdjust="spacing" textLength="103.4028" x="216.1475" y="225.147">X&#7917; l&#253; &#273;&#7893;i tr&#7843;</text><path d="M379.5503,129.5781 L369.5503,129.5781 C354.5503,129.5781 354.5503,219.2617 339.5503,219.2617 L329.5503,219.2617" fill="none" style="stroke:#181818;stroke-width:1;"/><path d="M593.1455,398.6289 L583.1455,398.6289 C568.1455,398.6289 568.1455,129.5781 553.1455,129.5781 L543.1455,129.5781" fill="none" style="stroke:#181818;stroke-width:1;"/><rect fill="#CFE0F3" height="39.7891" rx="12.5" ry="12.5" style="stroke:#4A79A8;stroke-width:1.5;" width="214.2383" x="328.9072" y="498.3125"/><text fill="#000000" font-family="Arial" font-size="17" font-weight="700" lengthAdjust="spacing" textLength="194.2383" x="338.9072" y="524.0923">5. Qu&#7843;n tr&#7883; h&#7879; th&#7889;ng</text><rect fill="#E8F1FB" height="39.7891" rx="12.5" ry="12.5" style="stroke:#4A79A8;stroke-width:1.5;" width="175.7808" x="103.1265" y="259.1563"/><text fill="#000000" font-family="Arial" font-size="17" lengthAdjust="spacing" textLength="155.7808" x="113.1265" y="284.936">Qu&#7843;n l&#253; danh m&#7909;c</text><path d="M328.9072,518.207 L318.9072,518.207 C303.9072,518.207 303.9072,279.0508 288.9072,279.0508 L278.9072,279.0508" fill="none" style="stroke:#181818;stroke-width:1;"/><rect fill="#E8F1FB" height="39.7891" rx="12.5" ry="12.5" style="stroke:#4A79A8;stroke-width:1.5;" width="223.145" x="55.7622" y="318.9453"/><text fill="#000000" font-family="Arial" font-size="17" lengthAdjust="spacing" textLength="203.145" x="65.7622" y="344.7251">C&#7845;u h&#236;nh th&#244;ng s&#7889; &#273;&#7897;ng</text><path d="M328.9072,518.207 L318.9072,518.207 C303.9072,518.207 303.9072,338.8398 288.9072,338.8398 L278.9072,338.8398" fill="none" style="stroke:#181818;stroke-width:1;"/><rect fill="#E8F1FB" height="39.7891" rx="12.5" ry="12.5" style="stroke:#4A79A8;stroke-width:1.5;" width="174.9341" x="103.9731" y="378.7344"/><text fill="#000000" font-family="Arial" font-size="17" lengthAdjust="spacing" textLength="154.9341" x="113.9731" y="404.5142">Qu&#7843;n l&#253; s&#7843;n ph&#7849;m</text><path d="M328.9072,518.207 L318.9072,518.207 C303.9072,518.207 303.9072,398.6289 288.9072,398.6289 L278.9072,398.6289" fill="none" style="stroke:#181818;stroke-width:1;"/><rect fill="#E8F1FB" height="39.7891" rx="12.5" ry="12.5" style="stroke:#4A79A8;stroke-width:1.5;" width="163.064" x="115.8433" y="438.5234"/><text fill="#000000" font-family="Arial" font-size="17" lengthAdjust="spacing" textLength="143.064" x="125.8433" y="464.3032">Thi&#7871;t l&#7853;p gi&#225; b&#225;n</text><path d="M328.9072,518.207 L318.9072,518.207 C303.9072,518.207 303.9072,458.418 288.9072,458.418 L278.9072,458.418" fill="none" style="stroke:#181818;stroke-width:1;"/><rect fill="#E8F1FB" height="39.7891" rx="12.5" ry="12.5" style="stroke:#4A79A8;stroke-width:1.5;" width="268.9072" x="10" y="498.3125"/><text fill="#000000" font-family="Arial" font-size="17" lengthAdjust="spacing" textLength="248.9072" x="20" y="524.0923">Qu&#7843;n l&#253; v&#7853;n chuy&#7875;n (l&#7897; tr&#236;nh)</text><path d="M328.9072,518.207 L318.9072,518.207 C303.9072,518.207 303.9072,518.207 288.9072,518.207 L278.9072,518.207" fill="none" style="stroke:#181818;stroke-width:1;"/><rect fill="#E8F1FB" height="39.7891" rx="12.5" ry="12.5" style="stroke:#4A79A8;stroke-width:1.5;" width="213.5742" x="65.333" y="558.1016"/><text fill="#000000" font-family="Arial" font-size="17" lengthAdjust="spacing" textLength="193.5742" x="75.333" y="583.8813">C&#7843;nh b&#225;o h&#224;ng t&#7891;n l&#226;u</text><path d="M328.9072,518.207 L318.9072,518.207 C303.9072,518.207 303.9072,577.9961 288.9072,577.9961 L278.9072,577.9961" fill="none" style="stroke:#181818;stroke-width:1;"/><rect fill="#E8F1FB" height="39.7891" rx="12.5" ry="12.5" style="stroke:#4A79A8;stroke-width:1.5;" width="170.3604" x="108.5469" y="617.8906"/><text fill="#000000" font-family="Arial" font-size="17" lengthAdjust="spacing" textLength="150.3604" x="118.5469" y="643.6704">Qu&#7843;n l&#253; t&#224;i kho&#7843;n</text><path d="M328.9072,518.207 L318.9072,518.207 C303.9072,518.207 303.9072,637.7852 288.9072,637.7852 L278.9072,637.7852" fill="none" style="stroke:#181818;stroke-width:1;"/><rect fill="#E8F1FB" height="39.7891" rx="12.5" ry="12.5" style="stroke:#4A79A8;stroke-width:1.5;" width="227.7188" x="51.1885" y="677.6797"/><text fill="#000000" font-family="Arial" font-size="17" lengthAdjust="spacing" textLength="207.7188" x="61.1885" y="703.4595">C&#7845;u h&#236;nh g&#7907;i &#253; mua k&#232;m</text><path d="M328.9072,518.207 L318.9072,518.207 C303.9072,518.207 303.9072,697.5742 288.9072,697.5742 L278.9072,697.5742" fill="none" style="stroke:#181818;stroke-width:1;"/><rect fill="#E8F1FB" height="39.7891" rx="12.5" ry="12.5" style="stroke:#4A79A8;stroke-width:1.5;" width="188.1323" x="90.7749" y="737.4688"/><text fill="#000000" font-family="Arial" font-size="17" lengthAdjust="spacing" textLength="168.1323" x="100.7749" y="763.2485">B&#225;o c&#225;o kinh doanh</text><path d="M328.9072,518.207 L318.9072,518.207 C303.9072,518.207 303.9072,757.3633 288.9072,757.3633 L278.9072,757.3633" fill="none" style="stroke:#181818;stroke-width:1;"/><path d="M593.1455,398.6289 L583.1455,398.6289 C568.1455,398.6289 568.1455,518.207 553.1455,518.207 L543.1455,518.207" fill="none" style="stroke:#181818;stroke-width:1;"/><?plantuml-src TLH1Inj15BxlhtXG46r8JA9LsqZHM2E25KfoyBhk3Zj3TcV2PhPWnPE77affG-d1cpP8Qz5JBOLTIWyJ-Z_cd_JDxAeniNiOTj_ttlU-xyrZr_hIZMN4k1-vFMUrBmz2yjmflbymDuZT20uT02vy0eVGTBrk48k4-niY534ysbnfrLhD1kmmJehGulhoq_ML1hG4bxjkH60zPcwOVxVP6mArvGOS8USpd_GadQtEFKGypbA4MlOP8wfNxn7L7YJQQ6rMMmj5bV47-oBqJU6HipfVE7uC7UBHjXGnSKebg5NWLQBJ8OTG_OQ-VUjHdLv4Y9QWeouZw3AT_eccmHsTlVT0KYBmKDSym9HiOA4z4e576KXJAc5cAg4jeA_EE9rctTBPa06AYH8NkkgRYKAz0blC5U3hx9r7RTwOx83fx0DGTSe32uq-wlIN70jqOio5GFtemMoeinEGiRhaT2u7gOiwf40vC1hynNEiq9ZprKysWS121Ph8AMo4ea4qS9L0f8QiwEY2fxEB1FRlqcxyNJ4uKDyJJ4Y__YzX9X-ixTrXNfT8fro6nTlhaZ6E0hfKOBWCkwPzBvUN5uRgsY9ZOzf-kRaztoPcHorqPqxgx1E_9Tj30RPWDD3PPsPQfKFJ_Sb4TwgpjzWDxnI7Cj7CDqEDT7RkMMH3f-S9whiqexxR1TlYPBhwtbRaMlDD2gtFWAapsCSBcwnxZJ37pKiET7RC9owxq3542LWhRgPblOVgIp999jKfCqCnWIaJmTIQceocuVNCqMMOv0kSWhD6y2TJ_7YSMgLUhIzLblu1?></g></svg>