<svg xmlns="http://www.w3.org/2000/svg" xmlns:xlink="http://www.w3.org/1999/xlink" contentStyleType="text/css" data-diagram-type="ACTIVITY" height="1165.625px" preserveAspectRatio="none" style="width:1115px;height:1165px;background:#FFFFFF;" version="1.1" viewBox="0 0 1115 1165" width="1115.625px" zoomAndPan="magnify"><?plantuml 1.2026.6?><defs/><g><g class="title" data-source-line="25"><text fill="#000000" font-family="'Arial'" font-size="21.875" font-weight="700" lengthAdjust="spacing" textLength="502.1103" x="305.7411" y="51.5549">Bi&#7875;u &#273;&#7891; ho&#7841;t &#273;&#7897;ng b&#7843;o h&#224;nh v&#224; s&#7917;a ch&#7919;a</text></g><rect fill="#E8F1FB" height="29.1016" style="stroke:#E8F1FB;stroke-width:1.5625;" width="1043.28" x="31.25" y="85.2661"/><ellipse cx="281.665" cy="137.8052" fill="#7FB07F" rx="15.625" ry="15.625" style="stroke:#222222;stroke-width:1.5625;"/><rect fill="#EAF3EA" height="60.3516" rx="19.5313" ry="19.5313" style="stroke:#6F9F6F;stroke-width:0.7813;" width="409.4604" x="76.9348" y="184.6802"/><text fill="#20351F" font-family="'Arial'" font-size="25" lengthAdjust="spacing" textLength="378.2104" x="92.5598" y="223.5107">Tra c&#7913;u b&#7843;o h&#224;nh (Serial/IMEI)</text><rect fill="#EAF3EA" height="60.3516" rx="19.5313" ry="19.5313" style="stroke:#6F9F6F;stroke-width:0.7813;" width="414.1235" x="74.6033" y="276.2817"/><text fill="#20351F" font-family="'Arial'" font-size="25" lengthAdjust="spacing" textLength="382.8735" x="90.2283" y="315.1123">Xem th&#7901;i h&#7841;n b&#7843;o h&#224;nh c&#242;n l&#7841;i</text><rect fill="#EAF3EA" height="60.3516" rx="19.5313" ry="19.5313" style="stroke:#6F9F6F;stroke-width:0.7813;" width="482.0801" x="40.625" y="367.8833"/><text fill="#20351F" font-family="'Arial'" font-size="25" lengthAdjust="spacing" textLength="450.8301" x="56.25" y="406.7139">G&#7917;i y&#234;u c&#7847;u b&#7843;o h&#224;nh / phi&#7871;u h&#7895; tr&#7907;</text><line style="stroke:#9DB8D2;stroke-width:2.3438;" x1="31.25" x2="31.25" y1="85.2661" y2="1133.7402"/><rect fill="#EAF3EA" height="60.3516" rx="19.5313" ry="19.5313" style="stroke:#6F9F6F;stroke-width:0.7813;" width="405.7373" x="578.1372" y="459.4849"/><text fill="#20351F" font-family="'Arial'" font-size="25" lengthAdjust="spacing" textLength="374.4873" x="593.7622" y="498.3154">Ti&#7871;p nh&#7853;n, l&#7853;p h&#7891; s&#417; s&#7917;a ch&#7919;a</text><rect fill="#EAF3EA" height="60.3516" rx="19.5313" ry="19.5313" style="stroke:#6F9F6F;stroke-width:0.7813;" width="396.4111" x="582.8003" y="619.8364"/><text fill="#20351F" font-family="'Arial'" font-size="25" lengthAdjust="spacing" textLength="365.1611" x="598.4253" y="658.667">C&#7853;p nh&#7853;t tr&#7841;ng th&#225;i s&#7917;a ch&#7919;a</text><rect fill="#EAF3EA" height="60.3516" rx="19.5313" ry="19.5313" style="stroke:#6F9F6F;stroke-width:0.7813;" width="485.3516" x="538.3301" y="711.438"/><text fill="#20351F" font-family="'Arial'" font-size="25" lengthAdjust="spacing" textLength="454.1016" x="553.9551" y="750.2686">&#272;&#7891;ng b&#7897; Repair - Ticket - Stock Item</text><rect fill="#EAF3EA" height="60.3516" rx="19.5313" ry="19.5313" style="stroke:#6F9F6F;stroke-width:0.7813;" width="415.2832" x="573.3643" y="803.0396"/><text fill="#20351F" font-family="'Arial'" font-size="25" lengthAdjust="spacing" textLength="384.0332" x="588.9893" y="841.8701">G&#7917;i th&#244;ng b&#225;o cho kh&#225;ch h&#224;ng</text><polygon fill="#FFF3D6" points="781.0059,551.0864,799.7559,569.8364,781.0059,588.5864,762.2559,569.8364,781.0059,551.0864" style="stroke:#C9A227;stroke-width:0.7813;stroke-linejoin:miter;stroke-miterlimit:10;"/><polygon fill="#FFF3D6" points="705.4977,894.6411,856.514,894.6411,875.264,913.3911,856.514,932.1411,705.4977,932.1411,686.7477,913.3911,705.4977,894.6411" style="stroke:#C9A227;stroke-width:0.7813;stroke-linejoin:miter;stroke-miterlimit:10;"/><text fill="#20351F" font-family="'Arial'" font-size="23.4375" lengthAdjust="spacing" textLength="151.0162" x="705.4977" y="921.505">&#272;&#227; ho&#224;n t&#7845;t?</text><text fill="#000000" font-family="'Arial'" font-size="25" lengthAdjust="spacing" textLength="64.4653" x="875.264" y="907.4951">Ch&#432;a</text><rect fill="#EAF3EA" height="60.3516" rx="19.5313" ry="19.5313" style="stroke:#6F9F6F;stroke-width:0.7813;" width="444.2627" x="558.8745" y="1007.7637"/><text fill="#20351F" font-family="'Arial'" font-size="25" lengthAdjust="spacing" textLength="413.0127" x="574.4995" y="1046.5942">B&#224;n giao thi&#7871;t b&#7883; cho kh&#225;ch h&#224;ng</text><ellipse cx="781.0059" cy="1116.5527" fill="none" rx="17.1875" ry="17.1875" style="stroke:#222222;stroke-width:1.5625;"/><ellipse cx="781.0059" cy="1116.5527" fill="#222222" rx="9.375" ry="9.375" style="stroke:#222222;stroke-width:1.5625;"/><line style="stroke:#9DB8D2;stroke-width:2.3438;" x1="528.9551" x2="528.9551" y1="85.2661" y2="1133.7402"/><line style="stroke:#9DB8D2;stroke-width:2.3438;" x1="1072.1191" x2="1072.1191" y1="85.2661" y2="1133.7402"/><line style="stroke:#5A5A5A;stroke-width:1.5625;" x1="281.665" x2="281.665" y1="153.4302" y2="184.6802"/><polygon fill="#5A5A5A" points="275.415,169.0552,281.665,184.6802,287.915,169.0552,281.665,175.3052" style="stroke:#5A5A5A;stroke-width:1.5625;stroke-linejoin:miter;stroke-miterlimit:10;"/><line style="stroke:#5A5A5A;stroke-width:1.5625;" x1="281.665" x2="281.665" y1="245.0317" y2="276.2817"/><polygon fill="#5A5A5A" points="275.415,260.6567,281.665,276.2817,287.915,260.6567,281.665,266.9067" style="stroke:#5A5A5A;stroke-width:1.5625;stroke-linejoin:miter;stroke-miterlimit:10;"/><line style="stroke:#5A5A5A;stroke-width:1.5625;" x1="281.665" x2="281.665" y1="336.6333" y2="367.8833"/><polygon fill="#5A5A5A" points="275.415,352.2583,281.665,367.8833,287.915,352.2583,281.665,358.5083" style="stroke:#5A5A5A;stroke-width:1.5625;stroke-linejoin:miter;stroke-miterlimit:10;"/><line style="stroke:#5A5A5A;stroke-width:1.5625;" x1="781.0059" x2="781.0059" y1="680.188" y2="711.438"/><polygon fill="#5A5A5A" points="774.7559,695.813,781.0059,711.438,787.2559,695.813,781.0059,702.063" style="stroke:#5A5A5A;stroke-width:1.5625;stroke-linejoin:miter;stroke-miterlimit:10;"/><line style="stroke:#5A5A5A;stroke-width:1.5625;" x1="781.0059" x2="781.0059" y1="771.7896" y2="803.0396"/><polygon fill="#5A5A5A" points="774.7559,787.4146,781.0059,803.0396,787.2559,787.4146,781.0059,793.6646" style="stroke:#5A5A5A;stroke-width:1.5625;stroke-linejoin:miter;stroke-miterlimit:10;"/><line style="stroke:#5A5A5A;stroke-width:1.5625;" x1="781.0059" x2="781.0059" y1="588.5864" y2="619.8364"/><polygon fill="#5A5A5A" points="774.7559,604.2114,781.0059,619.8364,787.2559,604.2114,781.0059,610.4614" style="stroke:#5A5A5A;stroke-width:1.5625;stroke-linejoin:miter;stroke-miterlimit:10;"/><line style="stroke:#5A5A5A;stroke-width:1.5625;" x1="875.264" x2="1042.4316" y1="913.3911" y2="913.3911"/><polygon fill="#5A5A5A" points="1036.1816,757.2388,1042.4316,741.6138,1048.6816,757.2388,1042.4316,750.9888" style="stroke:#5A5A5A;stroke-width:1.5625;stroke-linejoin:miter;stroke-miterlimit:10;"/><line style="stroke:#5A5A5A;stroke-width:1.5625;" x1="1042.4316" x2="1042.4316" y1="569.8364" y2="913.3911"/><line style="stroke:#5A5A5A;stroke-width:1.5625;" x1="1042.4316" x2="799.7559" y1="569.8364" y2="569.8364"/><polygon fill="#5A5A5A" points="815.3809,563.5864,799.7559,569.8364,815.3809,576.0864,809.1309,569.8364" style="stroke:#5A5A5A;stroke-width:1.5625;stroke-linejoin:miter;stroke-miterlimit:10;"/><line style="stroke:#5A5A5A;stroke-width:1.5625;" x1="781.0059" x2="781.0059" y1="863.3911" y2="894.6411"/><polygon fill="#5A5A5A" points="774.7559,879.0161,781.0059,894.6411,787.2559,879.0161,781.0059,885.2661" style="stroke:#5A5A5A;stroke-width:1.5625;stroke-linejoin:miter;stroke-miterlimit:10;"/><line style="stroke:#5A5A5A;stroke-width:1.5625;" x1="781.0059" x2="781.0059" y1="519.8364" y2="551.0864"/><polygon fill="#5A5A5A" points="774.7559,535.4614,781.0059,551.0864,787.2559,535.4614,781.0059,541.7114" style="stroke:#5A5A5A;stroke-width:1.5625;stroke-linejoin:miter;stroke-miterlimit:10;"/><line style="stroke:#5A5A5A;stroke-width:1.5625;" x1="781.0059" x2="781.0059" y1="932.1411" y2="1007.7637"/><polygon fill="#5A5A5A" points="774.7559,992.1387,781.0059,1007.7637,787.2559,992.1387,781.0059,998.3887" style="stroke:#5A5A5A;stroke-width:1.5625;stroke-linejoin:miter;stroke-miterlimit:10;"/><text fill="#000000" font-family="'Arial'" font-size="25" lengthAdjust="spacing" textLength="147.8149" x="787.2559" y="974.5239">&#272;&#227; ho&#224;n t&#7845;t</text><line style="stroke:#5A5A5A;stroke-width:1.5625;" x1="781.0059" x2="781.0059" y1="1068.1152" y2="1099.3652"/><polygon fill="#5A5A5A" points="774.7559,1083.7402,781.0059,1099.3652,787.2559,1083.7402,781.0059,1089.9902" style="stroke:#5A5A5A;stroke-width:1.5625;stroke-linejoin:miter;stroke-miterlimit:10;"/><line style="stroke:#5A5A5A;stroke-width:1.5625;" x1="281.665" x2="281.665" y1="428.2349" y2="436.0474"/><line style="stroke:#5A5A5A;stroke-width:1.5625;" x1="281.665" x2="781.0059" y1="436.0474" y2="436.0474"/><line style="stroke:#5A5A5A;stroke-width:1.5625;" x1="781.0059" x2="781.0059" y1="436.0474" y2="459.4849"/><polygon fill="#5A5A5A" points="774.7559,443.8599,781.0059,459.4849,787.2559,443.8599,781.0059,450.1099" style="stroke:#5A5A5A;stroke-width:1.5625;stroke-linejoin:miter;stroke-miterlimit:10;"/><text fill="#000000" font-family="'Arial'" font-size="25" lengthAdjust="spacing" textLength="147.9736" x="206.1157" y="108.4717">Kh&#225;ch h&#224;ng</text><text fill="#000000" font-family="'Arial'" font-size="25" lengthAdjust="spacing" textLength="166.6626" x="717.2058" y="108.4717">K&#7929; thu&#7853;t vi&#234;n</text><?plantuml-src RPA_Rzf05CTt_nLFwG9Ies1I883KoWPSeQeTIeQkLtF19soVTJw3qfAfOvTK6QeCbO9GLJKIQbLrgJrqCCh_uV-axmmq9ebOVEzzt-VxVX2EcHyGGJmOqXCIkTBYldn5F0fxXc34tTF2XnG3zew2NYyc0mPwhLA8X0uPyYdpHt12t90MCeOGVDhXBXVmg6QedrR84bko2PEdy5u3C8az7WaU-SEDlcTOXpr3PRWOKh69rgscLRSmMcnk_TeegfN3cguKNKOyxW_lWItBEkpM2u8YlzCqgjN6RVBMfeR1WIHYwzEmp4f3-VJ-axjFcdfJpuVPyffTywXRrSwAwveopoK-NOzTDD-80OwPTEdzZHnPkcKYIvCg3oRBaWyHh3vboGKuF8ldCdzSuYNUPl62WvDU-GvCqYi8isH9m7Qov0VHPY-ST6uxUNeqqq8rbTOw5YZ8ak_HJd5fGDNVuw3_ijSljxNM6-g1HCmN1Wuw-ZjYE_tbWujXXihdQCdWDBsE41j_syKUGE2mBFuR8INv359aoQADZMN97yH7MRoKC67fjJ_3nfGm01_zblvZnLy6gkm2mflvpcHjJT204eahR7LoMLua5Hzx7I4wdRCx9QXTdICjtrfo2QzfG9Y0VRo2FQOIFmQIssFeI-hbwlLWYFgjIj8vHnI7SM6dspvWwZ0yL6brdYxmGfW2cSLVvRCoi11A7UVc9obh-q_lvd5xfdgC6E5efEQNghcF3pY5aWV_0000?></g></svg>