<svg xmlns="http://www.w3.org/2000/svg" xmlns:xlink="http://www.w3.org/1999/xlink" contentStyleType="text/css" data-diagram-type="ACTIVITY" height="917.1875px" preserveAspectRatio="none" style="width:2071px;height:917px;background:#FFFFFF;" version="1.1" viewBox="0 0 2071 917" width="2071.875px" zoomAndPan="magnify"><?plantuml 1.2026.6?><defs/><g><g class="title" data-source-line="25"><text fill="#000000" font-family="'Arial'" font-size="21.875" font-weight="700" lengthAdjust="spacing" textLength="449.324" x="810.1921" y="51.5549">Bi&#7875;u &#273;&#7891; ho&#7841;t &#273;&#7897;ng qu&#7843;n tr&#7883; h&#7879; th&#7889;ng</text></g><ellipse cx="1015.3229" cy="97.3389" fill="#7FB07F" rx="15.625" ry="15.625" style="stroke:#222222;stroke-width:1.5625;"/><rect fill="#EAF3EA" height="60.3516" rx="19.5313" ry="19.5313" style="stroke:#6F9F6F;stroke-width:0.7813;" width="359.9609" x="835.3424" y="144.2139"/><text fill="#20351F" font-family="'Arial'" font-size="25" lengthAdjust="spacing" textLength="328.7109" x="850.9674" y="183.0444">&#272;&#259;ng nh&#7853;p quy&#7873;n qu&#7843;n tr&#7883;</text><rect fill="#EAF3EA" height="60.3516" rx="19.5313" ry="19.5313" style="stroke:#6F9F6F;stroke-width:0.7813;" width="272.7783" x="878.9337" y="235.8154"/><text fill="#20351F" font-family="'Arial'" font-size="25" lengthAdjust="spacing" textLength="241.5283" x="894.5587" y="274.646">Hi&#7875;n th&#7883; Dashboard</text><polygon fill="#FFF3D6" points="130.7476,396.167,394.7285,396.167,413.4785,414.917,394.7285,433.667,130.7476,433.667,111.9976,414.917,130.7476,396.167" style="stroke:#C9A227;stroke-width:0.7813;stroke-linejoin:miter;stroke-miterlimit:10;"/><text fill="#000000" font-family="'Arial'" font-size="25" lengthAdjust="spacing" textLength="250.9644" x="268.988" y="456.8726">Danh m&#7909;c/Th&#244;ng s&#7889;</text><text fill="#20351F" font-family="'Arial'" font-size="23.4375" lengthAdjust="spacing" textLength="263.9809" x="130.7476" y="423.0309">Lo&#7841;i thao t&#225;c qu&#7843;n tr&#7883;?</text><rect fill="#EAF3EA" height="60.3516" rx="19.5313" ry="19.5313" style="stroke:#6F9F6F;stroke-width:0.7813;" width="475.4761" x="25" y="494.0186"/><text fill="#20351F" font-family="'Arial'" font-size="25" lengthAdjust="spacing" textLength="444.2261" x="40.625" y="532.8491">Qu&#7843;n l&#253; danh m&#7909;c &amp; th&#244;ng s&#7889; &#273;&#7897;ng</text><polygon fill="#FFF3D6" points="676.5072,396.167,910.1383,396.167,928.8883,414.917,910.1383,433.667,676.5072,433.667,657.7572,414.917,676.5072,396.167" style="stroke:#C9A227;stroke-width:0.7813;stroke-linejoin:miter;stroke-miterlimit:10;"/><text fill="#000000" font-family="'Arial'" font-size="25" lengthAdjust="spacing" textLength="7.9468" x="799.5728" y="456.8726">&#160;</text><text fill="#20351F" font-family="'Arial'" font-size="23.4375" lengthAdjust="spacing" textLength="233.6311" x="676.5072" y="423.0309">S&#7843;n ph&#7849;m/Gi&#225;/G&#7907;i &#253;</text><rect fill="#EAF3EA" height="60.3516" rx="19.5313" ry="19.5313" style="stroke:#6F9F6F;stroke-width:0.7813;" width="515.4907" x="535.5774" y="494.0186"/><text fill="#20351F" font-family="'Arial'" font-size="25" lengthAdjust="spacing" textLength="484.2407" x="551.2024" y="532.8491">Qu&#7843;n l&#253; s&#7843;n ph&#7849;m, gi&#225;, g&#7907;i &#253; mua k&#232;m</text><polygon fill="#FFF3D6" points="1243.1641,396.167,1357.7881,396.167,1376.5381,414.917,1357.7881,433.667,1243.1641,433.667,1224.4141,414.917,1243.1641,396.167" style="stroke:#C9A227;stroke-width:0.7813;stroke-linejoin:miter;stroke-miterlimit:10;"/><text fill="#000000" font-family="'Arial'" font-size="25" lengthAdjust="spacing" textLength="7.9468" x="1306.7261" y="456.8726">&#160;</text><text fill="#20351F" font-family="'Arial'" font-size="23.4375" lengthAdjust="spacing" textLength="114.624" x="1243.1641" y="423.0309">T&#224;i kho&#7843;n</text><text fill="#000000" font-family="'Arial'" font-size="25" lengthAdjust="spacing" textLength="100.0732" x="1376.5381" y="409.021">B&#225;o c&#225;o</text><rect fill="#EAF3EA" height="60.3516" rx="19.5313" ry="19.5313" style="stroke:#6F9F6F;stroke-width:0.7813;" width="436.3159" x="1082.3181" y="494.0186"/><text fill="#20351F" font-family="'Arial'" font-size="25" lengthAdjust="spacing" textLength="405.0659" x="1097.9431" y="532.8491">Qu&#7843;n l&#253; t&#224;i kho&#7843;n &amp; ph&#226;n quy&#7873;n</text><rect fill="#EAF3EA" height="60.3516" rx="19.5313" ry="19.5313" style="stroke:#6F9F6F;stroke-width:0.7813;" width="465.1367" x="1534.259" y="484.1553"/><text fill="#20351F" font-family="'Arial'" font-size="25" lengthAdjust="spacing" textLength="433.8867" x="1549.884" y="522.9858">Xem b&#225;o c&#225;o &amp; c&#7843;nh b&#225;o h&#224;ng t&#7891;n</text><rect fill="#EAF3EA" height="60.3516" rx="19.5313" ry="19.5313" style="stroke:#6F9F6F;stroke-width:0.7813;" width="406.6895" x="811.9781" y="648.1201"/><text fill="#20351F" font-family="'Arial'" font-size="25" lengthAdjust="spacing" textLength="375.4395" x="827.6031" y="686.9507">Ki&#7875;m tra h&#7907;p l&#7879; &amp; l&#432;u thay &#273;&#7893;i</text><polygon fill="#FFF3D6" points="1015.3229,327.417,1034.0729,346.167,1015.3229,364.917,996.5729,346.167,1015.3229,327.417" style="stroke:#C9A227;stroke-width:0.7813;stroke-linejoin:miter;stroke-miterlimit:10;"/><polygon fill="#FFF3D6" points="934.2815,739.7217,1096.3642,739.7217,1115.1142,758.4717,1096.3642,777.2217,934.2815,777.2217,915.5315,758.4717,934.2815,739.7217" style="stroke:#C9A227;stroke-width:0.7813;stroke-linejoin:miter;stroke-miterlimit:10;"/><text fill="#20351F" font-family="'Arial'" font-size="23.4375" lengthAdjust="spacing" textLength="162.0827" x="934.2815" y="766.5855">C&#242;n thao t&#225;c?</text><text fill="#000000" font-family="'Arial'" font-size="25" lengthAdjust="spacing" textLength="32.7515" x="1115.1142" y="752.5757">C&#243;</text><ellipse cx="1015.3229" cy="870.0317" fill="none" rx="17.1875" ry="17.1875" style="stroke:#222222;stroke-width:1.5625;"/><ellipse cx="1015.3229" cy="870.0317" fill="#222222" rx="9.375" ry="9.375" style="stroke:#222222;stroke-width:1.5625;"/><line style="stroke:#5A5A5A;stroke-width:1.5625;" x1="1015.3229" x2="1015.3229" y1="112.9639" y2="144.2139"/><polygon fill="#5A5A5A" points="1009.0729,128.5889,1015.3229,144.2139,1021.5729,128.5889,1015.3229,134.8389" style="stroke:#5A5A5A;stroke-width:1.5625;stroke-linejoin:miter;stroke-miterlimit:10;"/><line style="stroke:#5A5A5A;stroke-width:1.5625;" x1="1015.3229" x2="1015.3229" y1="204.5654" y2="235.8154"/><polygon fill="#5A5A5A" points="1009.0729,220.1904,1015.3229,235.8154,1021.5729,220.1904,1015.3229,226.4404" style="stroke:#5A5A5A;stroke-width:1.5625;stroke-linejoin:miter;stroke-miterlimit:10;"/><line style="stroke:#5A5A5A;stroke-width:1.5625;" x1="262.738" x2="262.738" y1="433.667" y2="494.0186"/><polygon fill="#5A5A5A" points="256.488,478.3936,262.738,494.0186,268.988,478.3936,262.738,484.6436" style="stroke:#5A5A5A;stroke-width:1.5625;stroke-linejoin:miter;stroke-miterlimit:10;"/><line style="stroke:#5A5A5A;stroke-width:1.5625;" x1="262.738" x2="262.738" y1="554.3701" y2="616.8701"/><polygon fill="#5A5A5A" points="256.488,601.2451,262.738,616.8701,268.988,601.2451,262.738,607.4951" style="stroke:#5A5A5A;stroke-width:1.5625;stroke-linejoin:miter;stroke-miterlimit:10;"/><line style="stroke:#5A5A5A;stroke-width:1.5625;" x1="793.3228" x2="793.3228" y1="433.667" y2="494.0186"/><polygon fill="#5A5A5A" points="787.0728,478.3936,793.3228,494.0186,799.5728,478.3936,793.3228,484.6436" style="stroke:#5A5A5A;stroke-width:1.5625;stroke-linejoin:miter;stroke-miterlimit:10;"/><line style="stroke:#5A5A5A;stroke-width:1.5625;" x1="793.3228" x2="793.3228" y1="554.3701" y2="616.8701"/><polygon fill="#5A5A5A" points="787.0728,601.2451,793.3228,616.8701,799.5728,601.2451,793.3228,607.4951" style="stroke:#5A5A5A;stroke-width:1.5625;stroke-linejoin:miter;stroke-miterlimit:10;"/><line style="stroke:#5A5A5A;stroke-width:1.5625;" x1="1300.4761" x2="1300.4761" y1="433.667" y2="494.0186"/><polygon fill="#5A5A5A" points="1294.2261,478.3936,1300.4761,494.0186,1306.7261,478.3936,1300.4761,484.6436" style="stroke:#5A5A5A;stroke-width:1.5625;stroke-linejoin:miter;stroke-miterlimit:10;"/><line style="stroke:#5A5A5A;stroke-width:1.5625;" x1="1300.4761" x2="1300.4761" y1="554.3701" y2="616.8701"/><polygon fill="#5A5A5A" points="1294.2261,601.2451,1300.4761,616.8701,1306.7261,601.2451,1300.4761,607.4951" style="stroke:#5A5A5A;stroke-width:1.5625;stroke-linejoin:miter;stroke-miterlimit:10;"/><line style="stroke:#5A5A5A;stroke-width:1.5625;" x1="413.4785" x2="657.7572" y1="414.917" y2="414.917"/><polygon fill="#5A5A5A" points="642.1322,408.667,657.7572,414.917,642.1322,421.167,648.3822,414.917" style="stroke:#5A5A5A;stroke-width:1.5625;stroke-linejoin:miter;stroke-miterlimit:10;"/><line style="stroke:#5A5A5A;stroke-width:1.5625;" x1="928.8883" x2="1224.4141" y1="414.917" y2="414.917"/><polygon fill="#5A5A5A" points="1208.7891,408.667,1224.4141,414.917,1208.7891,421.167,1215.0391,414.917" style="stroke:#5A5A5A;stroke-width:1.5625;stroke-linejoin:miter;stroke-miterlimit:10;"/><line style="stroke:#5A5A5A;stroke-width:1.5625;" x1="1015.3229" x2="1015.3229" y1="364.917" y2="372.7295"/><line style="stroke:#5A5A5A;stroke-width:1.5625;" x1="1015.3229" x2="262.738" y1="372.7295" y2="372.7295"/><line style="stroke:#5A5A5A;stroke-width:1.5625;" x1="262.738" x2="262.738" y1="372.7295" y2="396.167"/><polygon fill="#5A5A5A" points="256.488,380.542,262.738,396.167,268.988,380.542,262.738,386.792" style="stroke:#5A5A5A;stroke-width:1.5625;stroke-linejoin:miter;stroke-miterlimit:10;"/><line style="stroke:#5A5A5A;stroke-width:1.5625;" x1="1376.5381" x2="1766.8274" y1="414.917" y2="414.917"/><line style="stroke:#5A5A5A;stroke-width:1.5625;" x1="1766.8274" x2="1766.8274" y1="414.917" y2="484.1553"/><polygon fill="#5A5A5A" points="1760.5774,468.5303,1766.8274,484.1553,1773.0774,468.5303,1766.8274,474.7803" style="stroke:#5A5A5A;stroke-width:1.5625;stroke-linejoin:miter;stroke-miterlimit:10;"/><line style="stroke:#5A5A5A;stroke-width:1.5625;" x1="1766.8274" x2="1766.8274" y1="544.5068" y2="616.8701"/><polygon fill="#5A5A5A" points="1760.5774,601.2451,1766.8274,616.8701,1773.0774,601.2451,1766.8274,607.4951" style="stroke:#5A5A5A;stroke-width:1.5625;stroke-linejoin:miter;stroke-miterlimit:10;"/><line style="stroke:#5A5A5A;stroke-width:1.5625;" x1="262.738" x2="1766.8274" y1="616.8701" y2="616.8701"/><line style="stroke:#5A5A5A;stroke-width:1.5625;" x1="1015.3229" x2="1015.3229" y1="616.8701" y2="648.1201"/><polygon fill="#5A5A5A" points="1009.0729,632.4951,1015.3229,648.1201,1021.5729,632.4951,1015.3229,638.7451" style="stroke:#5A5A5A;stroke-width:1.5625;stroke-linejoin:miter;stroke-miterlimit:10;"/><line style="stroke:#5A5A5A;stroke-width:1.5625;" x1="1115.1142" x2="2018.1458" y1="758.4717" y2="758.4717"/><polygon fill="#5A5A5A" points="2011.8958,585.6201,2018.1458,569.9951,2024.3958,585.6201,2018.1458,579.3701" style="stroke:#5A5A5A;stroke-width:1.5625;stroke-linejoin:miter;stroke-miterlimit:10;"/><line style="stroke:#5A5A5A;stroke-width:1.5625;" x1="2018.1458" x2="2018.1458" y1="346.167" y2="758.4717"/><line style="stroke:#5A5A5A;stroke-width:1.5625;" x1="2018.1458" x2="1034.0729" y1="346.167" y2="346.167"/><polygon fill="#5A5A5A" points="1049.6979,339.917,1034.0729,346.167,1049.6979,352.417,1043.4479,346.167" style="stroke:#5A5A5A;stroke-width:1.5625;stroke-linejoin:miter;stroke-miterlimit:10;"/><line style="stroke:#5A5A5A;stroke-width:1.5625;" x1="1015.3229" x2="1015.3229" y1="708.4717" y2="739.7217"/><polygon fill="#5A5A5A" points="1009.0729,724.0967,1015.3229,739.7217,1021.5729,724.0967,1015.3229,730.3467" style="stroke:#5A5A5A;stroke-width:1.5625;stroke-linejoin:miter;stroke-miterlimit:10;"/><line style="stroke:#5A5A5A;stroke-width:1.5625;" x1="1015.3229" x2="1015.3229" y1="296.167" y2="327.417"/><polygon fill="#5A5A5A" points="1009.0729,311.792,1015.3229,327.417,1021.5729,311.792,1015.3229,318.042" style="stroke:#5A5A5A;stroke-width:1.5625;stroke-linejoin:miter;stroke-miterlimit:10;"/><line style="stroke:#5A5A5A;stroke-width:1.5625;" x1="1015.3229" x2="1015.3229" y1="777.2217" y2="852.8442"/><polygon fill="#5A5A5A" points="1009.0729,837.2192,1015.3229,852.8442,1021.5729,837.2192,1015.3229,843.4692" style="stroke:#5A5A5A;stroke-width:1.5625;stroke-linejoin:miter;stroke-miterlimit:10;"/><text fill="#000000" font-family="'Arial'" font-size="25" lengthAdjust="spacing" textLength="79.248" x="1021.5729" y="819.6045">Kh&#244;ng</text><?plantuml-src VL9FYzD05B_dKpnMM5fG-i-ssnQKjcbMM16aFNYTJQRDq6Gc9bDBNJp87ZpinKKyUDjQ13q8efuQzfJYzyWtyKsQj5agKfYIztv_vhtV15F6FU8J5omw9ZD76eBBPyIbSDJr6N6EjE1VY25xJQ7Io3Sz1fLwELS9R6A9EUCJ61CdeBbEr_V5l2ySuSEzUbVzj5oNc9AzOd815nf0ZvZJYIzct4hnWwvH6tHLH_WMzTDgmsWP3GEh-Sjjlr94jLohLnH2PyGLt3eGDWoZfZToWBn-lzMjLflxvjwcZiMX97xcqpHwvQRo6UoKzOUjIgkI39FfjVJUYLxLtkJNDMUkGpZTZfqtJy408oOTUhYH4wDYz51BaweFFHQ7bpFONCVX1x15l5xAvECJ9l5o5gzN7AGVXrTWn-4xa7XUyuaMg1cqzkRzvX9nt8xNtps4B-BmBRz3wsZj9yg19zGhq4bWdmlYMntDfnub4Y_Anb1ugfmPWeW06ItDEoAFYzYW70ewuJQuSVZ5B8tiw3TQ1tYV8ce0j9zl6Kvq2zOE1yT8tI6poJh8eFZAbFCmONaumZUtTCgYPUaq3bSCejlC5GuDWXpfFaoGXMTA0tT6O1fzTVCke-Y6mLJjTyN_eojpCBowPqUVURRNJ0uAlMWfmCGZ5NX1NJZFQaWp5TtUbkpe1eUNcEvMW5jiZF_jCvMAY_ibAjcL1uxAznYSFpzcAeP5igkFBCi9vZR3vrBeHp_vFYPCXWMg-AkeFNXqbcowWwz3U7y1?></g></svg>