<svg xmlns="http://www.w3.org/2000/svg" xmlns:xlink="http://www.w3.org/1999/xlink" contentStyleType="text/css" data-diagram-type="ACTIVITY" height="1146.875px" preserveAspectRatio="none" style="width:835px;height:1146px;background:#FFFFFF;" version="1.1" viewBox="0 0 835 1146" width="835.9375px" zoomAndPan="magnify"><?plantuml 1.2026.6?><defs/><g><g class="title" data-source-line="25"><text fill="#000000" font-family="'Arial'" font-size="21.875" font-weight="700" lengthAdjust="spacing" textLength="477.6611" x="177.6978" y="51.5549">Bi&#7875;u &#273;&#7891; ho&#7841;t &#273;&#7897;ng chung c&#7911;a h&#7879; th&#7889;ng</text></g><ellipse cx="278.4912" cy="97.3389" fill="#7FB07F" rx="15.625" ry="15.625" style="stroke:#222222;stroke-width:1.5625;"/><rect fill="#EAF3EA" height="60.3516" rx="19.5313" ry="19.5313" style="stroke:#6F9F6F;stroke-width:0.7813;" width="245.1172" x="155.9326" y="144.2139"/><text fill="#20351F" font-family="'Arial'" font-size="25" lengthAdjust="spacing" textLength="213.8672" x="171.5576" y="183.0444">Truy c&#7853;p website</text><rect fill="#EAF3EA" height="60.3516" rx="19.5313" ry="19.5313" style="stroke:#6F9F6F;stroke-width:0.7813;" width="376.0254" x="90.4785" y="304.5654"/><text fill="#20351F" font-family="'Arial'" font-size="25" lengthAdjust="spacing" textLength="344.7754" x="106.1035" y="343.396">Nh&#7853;p t&#224;i kho&#7843;n &amp; m&#7853;t kh&#7849;u</text><rect fill="#EAF3EA" height="60.3516" rx="19.5313" ry="19.5313" style="stroke:#6F9F6F;stroke-width:0.7813;" width="373.4741" x="91.7542" y="419.6045"/><text fill="#20351F" font-family="'Arial'" font-size="25" lengthAdjust="spacing" textLength="342.2241" x="107.3792" y="458.4351">H&#7879; th&#7889;ng ki&#7875;m tra x&#225;c th&#7921;c</text><polygon fill="#FFF3D6" points="278.4912,235.8154,297.2412,254.5654,278.4912,273.3154,259.7412,254.5654,278.4912,235.8154" style="stroke:#C9A227;stroke-width:0.7813;stroke-linejoin:miter;stroke-miterlimit:10;"/><polygon fill="#FFF3D6" points="176.696,511.2061,380.2864,511.2061,399.0364,529.9561,380.2864,548.7061,176.696,548.7061,157.946,529.9561,176.696,511.2061" style="stroke:#C9A227;stroke-width:0.7813;stroke-linejoin:miter;stroke-miterlimit:10;"/><text fill="#20351F" font-family="'Arial'" font-size="23.4375" lengthAdjust="spacing" textLength="203.5904" x="176.696" y="538.0699">Th&#244;ng tin h&#7907;p l&#7879;?</text><text fill="#000000" font-family="'Arial'" font-size="25" lengthAdjust="spacing" textLength="79.248" x="399.0364" y="524.0601">Kh&#244;ng</text><rect fill="#EAF3EA" height="60.3516" rx="19.5313" ry="19.5313" style="stroke:#6F9F6F;stroke-width:0.7813;" width="300.9277" x="504.0039" y="362.085"/><text fill="#20351F" font-family="'Arial'" font-size="25" lengthAdjust="spacing" textLength="269.6777" x="519.6289" y="400.9155">Hi&#7875;n th&#7883; th&#244;ng b&#225;o l&#7895;i</text><rect fill="#EAF3EA" height="60.3516" rx="19.5313" ry="19.5313" style="stroke:#6F9F6F;stroke-width:0.7813;" width="410.7056" x="73.1384" y="624.3286"/><text fill="#20351F" font-family="'Arial'" font-size="25" lengthAdjust="spacing" textLength="379.4556" x="88.7634" y="663.1592">C&#7845;p ph&#225;t phi&#234;n l&#224;m vi&#7879;c (JWT)</text><rect fill="#EAF3EA" height="60.3516" rx="19.5313" ry="19.5313" style="stroke:#6F9F6F;stroke-width:0.7813;" width="404.7241" x="76.1292" y="715.9302"/><text fill="#20351F" font-family="'Arial'" font-size="25" lengthAdjust="spacing" textLength="373.4741" x="91.7542" y="754.7607">Hi&#7875;n th&#7883; giao di&#7879;n theo vai tr&#242;</text><rect fill="#EAF3EA" height="60.3516" rx="19.5313" ry="19.5313" style="stroke:#6F9F6F;stroke-width:0.7813;" width="506.9824" x="25" y="807.5317"/><text fill="#20351F" font-family="'Arial'" font-size="25" lengthAdjust="spacing" textLength="475.7324" x="40.625" y="846.3623">Th&#7921;c hi&#7879;n nghi&#7879;p v&#7909; theo ph&#226;n quy&#7873;n</text><rect fill="#EAF3EA" height="60.3516" rx="19.5313" ry="19.5313" style="stroke:#6F9F6F;stroke-width:0.7813;" width="332.6416" x="112.1704" y="899.1333"/><text fill="#20351F" font-family="'Arial'" font-size="25" lengthAdjust="spacing" textLength="301.3916" x="127.7954" y="937.9639">&#272;&#7891;ng b&#7897; d&#7919; li&#7879;u t&#7913;c th&#7901;i</text><rect fill="#EAF3EA" height="60.3516" rx="19.5313" ry="19.5313" style="stroke:#6F9F6F;stroke-width:0.7813;" width="161.3647" x="197.8088" y="990.7349"/><text fill="#20351F" font-family="'Arial'" font-size="25" lengthAdjust="spacing" textLength="130.1147" x="213.4338" y="1029.5654">&#272;&#259;ng xu&#7845;t</text><ellipse cx="278.4912" cy="1099.5239" fill="none" rx="17.1875" ry="17.1875" style="stroke:#222222;stroke-width:1.5625;"/><ellipse cx="278.4912" cy="1099.5239" fill="#222222" rx="9.375" ry="9.375" style="stroke:#222222;stroke-width:1.5625;"/><line style="stroke:#5A5A5A;stroke-width:1.5625;" x1="278.4912" x2="278.4912" y1="112.9639" y2="144.2139"/><polygon fill="#5A5A5A" points="272.2412,128.5889,278.4912,144.2139,284.7412,128.5889,278.4912,134.8389" style="stroke:#5A5A5A;stroke-width:1.5625;stroke-linejoin:miter;stroke-miterlimit:10;"/><line style="stroke:#5A5A5A;stroke-width:1.5625;" x1="278.4912" x2="278.4912" y1="364.917" y2="419.6045"/><polygon fill="#5A5A5A" points="272.2412,403.9795,278.4912,419.6045,284.7412,403.9795,278.4912,410.2295" style="stroke:#5A5A5A;stroke-width:1.5625;stroke-linejoin:miter;stroke-miterlimit:10;"/><line style="stroke:#5A5A5A;stroke-width:1.5625;" x1="278.4912" x2="278.4912" y1="273.3154" y2="304.5654"/><polygon fill="#5A5A5A" points="272.2412,288.9404,278.4912,304.5654,284.7412,288.9404,278.4912,295.1904" style="stroke:#5A5A5A;stroke-width:1.5625;stroke-linejoin:miter;stroke-miterlimit:10;"/><line style="stroke:#5A5A5A;stroke-width:1.5625;" x1="399.0364" x2="654.4678" y1="529.9561" y2="529.9561"/><line style="stroke:#5A5A5A;stroke-width:1.5625;" x1="654.4678" x2="654.4678" y1="422.4365" y2="529.9561"/><polygon fill="#5A5A5A" points="648.2178,438.0615,654.4678,422.4365,660.7178,438.0615,654.4678,431.8115" style="stroke:#5A5A5A;stroke-width:1.5625;stroke-linejoin:miter;stroke-miterlimit:10;"/><line style="stroke:#5A5A5A;stroke-width:1.5625;" x1="654.4678" x2="654.4678" y1="254.5654" y2="362.085"/><line style="stroke:#5A5A5A;stroke-width:1.5625;" x1="654.4678" x2="297.2412" y1="254.5654" y2="254.5654"/><polygon fill="#5A5A5A" points="312.8662,248.3154,297.2412,254.5654,312.8662,260.8154,306.6162,254.5654" style="stroke:#5A5A5A;stroke-width:1.5625;stroke-linejoin:miter;stroke-miterlimit:10;"/><line style="stroke:#5A5A5A;stroke-width:1.5625;" x1="278.4912" x2="278.4912" y1="479.9561" y2="511.2061"/><polygon fill="#5A5A5A" points="272.2412,495.5811,278.4912,511.2061,284.7412,495.5811,278.4912,501.8311" style="stroke:#5A5A5A;stroke-width:1.5625;stroke-linejoin:miter;stroke-miterlimit:10;"/><line style="stroke:#5A5A5A;stroke-width:1.5625;" x1="278.4912" x2="278.4912" y1="204.5654" y2="235.8154"/><polygon fill="#5A5A5A" points="272.2412,220.1904,278.4912,235.8154,284.7412,220.1904,278.4912,226.4404" style="stroke:#5A5A5A;stroke-width:1.5625;stroke-linejoin:miter;stroke-miterlimit:10;"/><line style="stroke:#5A5A5A;stroke-width:1.5625;" x1="278.4912" x2="278.4912" y1="548.7061" y2="624.3286"/><polygon fill="#5A5A5A" points="272.2412,608.7036,278.4912,624.3286,284.7412,608.7036,278.4912,614.9536" style="stroke:#5A5A5A;stroke-width:1.5625;stroke-linejoin:miter;stroke-miterlimit:10;"/><text fill="#000000" font-family="'Arial'" font-size="25" lengthAdjust="spacing" textLength="32.7515" x="284.7412" y="591.0889">C&#243;</text><line style="stroke:#5A5A5A;stroke-width:1.5625;" x1="278.4912" x2="278.4912" y1="684.6802" y2="715.9302"/><polygon fill="#5A5A5A" points="272.2412,700.3052,278.4912,715.9302,284.7412,700.3052,278.4912,706.5552" style="stroke:#5A5A5A;stroke-width:1.5625;stroke-linejoin:miter;stroke-miterlimit:10;"/><line style="stroke:#5A5A5A;stroke-width:1.5625;" x1="278.4912" x2="278.4912" y1="776.2817" y2="807.5317"/><polygon fill="#5A5A5A" points="272.2412,791.9067,278.4912,807.5317,284.7412,791.9067,278.4912,798.1567" style="stroke:#5A5A5A;stroke-width:1.5625;stroke-linejoin:miter;stroke-miterlimit:10;"/><line style="stroke:#5A5A5A;stroke-width:1.5625;" x1="278.4912" x2="278.4912" y1="867.8833" y2="899.1333"/><polygon fill="#5A5A5A" points="272.2412,883.5083,278.4912,899.1333,284.7412,883.5083,278.4912,889.7583" style="stroke:#5A5A5A;stroke-width:1.5625;stroke-linejoin:miter;stroke-miterlimit:10;"/><line style="stroke:#5A5A5A;stroke-width:1.5625;" x1="278.4912" x2="278.4912" y1="959.4849" y2="990.7349"/><polygon fill="#5A5A5A" points="272.2412,975.1099,278.4912,990.7349,284.7412,975.1099,278.4912,981.3599" style="stroke:#5A5A5A;stroke-width:1.5625;stroke-linejoin:miter;stroke-miterlimit:10;"/><line style="stroke:#5A5A5A;stroke-width:1.5625;" x1="278.4912" x2="278.4912" y1="1051.0864" y2="1082.3364"/><polygon fill="#5A5A5A" points="272.2412,1066.7114,278.4912,1082.3364,284.7412,1066.7114,278.4912,1072.9614" style="stroke:#5A5A5A;stroke-width:1.5625;stroke-linejoin:miter;stroke-miterlimit:10;"/><?plantuml-src RP5DYzD06CVl-HGFAqXx49hMjjiMbFGbB0fxsOBdQP9jXYOpSJ9fjee7sKCFUt7n81w4hSiYAuZuScgEwHUPR-8pQUj6LW93vl__FQyJpoYBY20XkDufIG9fSoQFIUZ1WIKe2GwC-7_42NtbWTagcn45irahAR5FN9vIDeLJ4iHUoR64uEc01rp0WwQbFwFa4aVIEPKBU6q0z8apcmgUC7V7ZooxCRAqmuNhYPtQiZjsoqQrtDpsjYFgjKRJrCIGaf0pzrvYsxORmrO9AESVTAnwlNrdtfLfedWYYTZNQTlzMblN6VtDF7pSCJjcCSm-NsVOFnpMZJVbTQKq30ZpjcENY-zWW36LWNT_8uUsQVSnbo6r3tsgilC4DfSgUmy-L-kLB2uVyIKSFz6dohuGy5Ms18dd9PiQiHx1w8v5ia1x_Is2r9l4L7ezGtYHHoIMxnxxXIFpAmepdVcQmKC8KPHuL-lRfAUner9YcEbkGf22m5c-SWhzXzCp9ZX6IeJRFT80A_GBFFFV63J9Lnm2bNsW-_AG-XHdguotWAHCztyTQMhvj0eqXihpmgiQZvuCybyzepjGwvi88Z_71KG-pRyo2FAh4EPOSUb0vTcBSHMnVngOKiB1rO1MF0vpGh7v_2U2uw9ryBSkcnO_4SnLThDbiTHd1Y-JXShUCWpOlCCdqEFWyi5LsNS8T4W2KcMtsrLyeWMtEKViBC66PG_VWaT_0000?></g></svg>