<svg xmlns="http://www.w3.org/2000/svg" xmlns:xlink="http://www.w3.org/1999/xlink" contentStyleType="text/css" data-diagram-type="ACTIVITY" height="1218.75px" preserveAspectRatio="none" style="width:1335px;height:1218px;background:#FFFFFF;" version="1.1" viewBox="0 0 1335 1218" width="1335.9375px" zoomAndPan="magnify"><?plantuml 1.2026.6?><defs/><g><g class="title" data-source-line="25"><text fill="#000000" font-family="'Arial'" font-size="21.875" font-weight="700" lengthAdjust="spacing" textLength="523.1522" x="404.9828" y="51.5549">Bi&#7875;u &#273;&#7891; ho&#7841;t &#273;&#7897;ng &#273;&#7863;t h&#224;ng v&#224; thanh to&#225;n</text></g><ellipse cx="735.1807" cy="97.3389" fill="#7FB07F" rx="15.625" ry="15.625" style="stroke:#222222;stroke-width:1.5625;"/><rect fill="#EAF3EA" height="60.3516" rx="19.5313" ry="19.5313" style="stroke:#6F9F6F;stroke-width:0.7813;" width="407.8491" x="531.2561" y="144.2139"/><text fill="#20351F" font-family="'Arial'" font-size="25" lengthAdjust="spacing" textLength="376.5991" x="546.8811" y="183.0444">Ch&#7885;n s&#7843;n ph&#7849;m, th&#234;m v&#224;o gi&#7887;</text><rect fill="#EAF3EA" height="60.3516" rx="19.5313" ry="19.5313" style="stroke:#6F9F6F;stroke-width:0.7813;" width="146.5698" x="661.8958" y="235.8154"/><text fill="#20351F" font-family="'Arial'" font-size="25" lengthAdjust="spacing" textLength="115.3198" x="677.5208" y="274.646">&#272;&#7863;t h&#224;ng</text><rect fill="#EAF3EA" height="60.3516" rx="19.5313" ry="19.5313" style="stroke:#6F9F6F;stroke-width:0.7813;" width="350.3052" x="560.0281" y="327.417"/><text fill="#20351F" font-family="'Arial'" font-size="25" lengthAdjust="spacing" textLength="319.0552" x="575.6531" y="366.2476">Nh&#7853;p th&#244;ng tin giao nh&#7853;n</text><rect fill="#EAF3EA" height="60.3516" rx="19.5313" ry="19.5313" style="stroke:#6F9F6F;stroke-width:0.7813;" width="339.8682" x="565.2466" y="419.0186"/><text fill="#20351F" font-family="'Arial'" font-size="25" lengthAdjust="spacing" textLength="308.6182" x="580.8716" y="457.8491">&#193;p m&#227; gi&#7843;m gi&#225; (n&#7871;u c&#243;)</text><rect fill="#EAF3EA" height="60.3516" rx="19.5313" ry="19.5313" style="stroke:#6F9F6F;stroke-width:0.7813;" width="385.3394" x="542.511" y="510.6201"/><text fill="#20351F" font-family="'Arial'" font-size="25" lengthAdjust="spacing" textLength="354.0894" x="558.136" y="549.4507">Ki&#7875;m tra t&#7891;n kho &amp; kh&#243;a t&#7891;n</text><polygon fill="#FFF3D6" points="587.5061,602.2217,882.8552,602.2217,901.6052,620.9717,882.8552,639.7217,587.5061,639.7217,568.7561,620.9717,587.5061,602.2217" style="stroke:#C9A227;stroke-width:0.7813;stroke-linejoin:miter;stroke-miterlimit:10;"/><text fill="#20351F" font-family="'Arial'" font-size="23.4375" lengthAdjust="spacing" textLength="295.3491" x="587.5061" y="629.0855">Ph&#432;&#417;ng th&#7913;c thanh to&#225;n?</text><text fill="#000000" font-family="'Arial'" font-size="25" lengthAdjust="spacing" textLength="224.8901" x="343.866" y="615.0757">Chuy&#7875;n kho&#7843;n QR</text><text fill="#000000" font-family="'Arial'" font-size="25" lengthAdjust="spacing" textLength="161.2183" x="901.6052" y="615.0757">T&#7841;i c&#7917;a h&#224;ng</text><rect fill="#EAF3EA" height="89.4531" rx="19.5313" ry="19.5313" style="stroke:#6F9F6F;stroke-width:0.7813;" width="356.7383" x="222.5159" y="655.3467"/><text fill="#20351F" font-family="'Arial'" font-size="25" lengthAdjust="spacing" textLength="325.4883" x="238.1409" y="694.1772">Kh&#7903;i t&#7841;o phi&#234;n thanh to&#225;n</text><text fill="#20351F" font-family="'Arial'" font-size="25" lengthAdjust="spacing" textLength="159.3384" x="238.1409" y="723.2788">(c&#243; th&#7901;i h&#7841;n)</text><polygon fill="#FFF3D6" points="250.0118,799.4873,551.7582,799.4873,570.5082,818.2373,551.7582,836.9873,250.0118,836.9873,231.2618,818.2373,250.0118,799.4873" style="stroke:#C9A227;stroke-width:0.7813;stroke-linejoin:miter;stroke-miterlimit:10;"/><text fill="#20351F" font-family="'Arial'" font-size="23.4375" lengthAdjust="spacing" textLength="301.7464" x="250.0118" y="826.3512">Giao d&#7883;ch &#273;&#432;&#7907;c x&#225;c nh&#7853;n?</text><text fill="#000000" font-family="'Arial'" font-size="25" lengthAdjust="spacing" textLength="146.8262" x="84.4357" y="812.3413">Th&#224;nh c&#244;ng</text><text fill="#000000" font-family="'Arial'" font-size="25" lengthAdjust="spacing" textLength="98.938" x="570.5082" y="812.3413">H&#7871;t h&#7841;n</text><rect fill="#EAF3EA" height="60.3516" rx="19.5313" ry="19.5313" style="stroke:#6F9F6F;stroke-width:0.7813;" width="355.1025" x="25" y="852.6123"/><text fill="#20351F" font-family="'Arial'" font-size="25" lengthAdjust="spacing" textLength="323.8525" x="40.625" y="891.4429">C&#7853;p nh&#7853;t "&#272;&#227; thanh to&#225;n"</text><rect fill="#EAF3EA" height="60.3516" rx="19.5313" ry="19.5313" style="stroke:#6F9F6F;stroke-width:0.7813;" width="375.7324" x="411.3525" y="852.6123"/><text fill="#20351F" font-family="'Arial'" font-size="25" lengthAdjust="spacing" textLength="344.4824" x="426.9775" y="891.4429">H&#7911;y phi&#234;n, cho ph&#233;p t&#7841;o l&#7841;i</text><ellipse cx="599.2188" cy="961.4014" fill="none" rx="17.1875" ry="17.1875" style="stroke:#222222;stroke-width:1.5625;"/><ellipse cx="599.2188" cy="961.4014" fill="#222222" rx="9.375" ry="9.375" style="stroke:#222222;stroke-width:1.5625;"/><rect fill="#EAF3EA" height="60.3516" rx="19.5313" ry="19.5313" style="stroke:#6F9F6F;stroke-width:0.7813;" width="406.1646" x="866.394" y="655.3467"/><text fill="#20351F" font-family="'Arial'" font-size="25" lengthAdjust="spacing" textLength="374.9146" x="882.019" y="694.1772">Ghi nh&#7853;n &#273;&#417;n &#7903; tr&#7841;ng th&#225;i ch&#7901;</text><rect fill="#EAF3EA" height="60.3516" rx="19.5313" ry="19.5313" style="stroke:#6F9F6F;stroke-width:0.7813;" width="471.0327" x="833.96" y="770.3857"/><text fill="#20351F" font-family="'Arial'" font-size="25" lengthAdjust="spacing" textLength="439.7827" x="849.585" y="809.2163">Ho&#224;n t&#7845;t thanh to&#225;n khi nh&#7853;n h&#224;ng</text><polygon fill="#FFF3D6" points="735.1807,994.2139,753.9307,1012.9639,735.1807,1031.7139,716.4307,1012.9639,735.1807,994.2139" style="stroke:#C9A227;stroke-width:0.7813;stroke-linejoin:miter;stroke-miterlimit:10;"/><rect fill="#EAF3EA" height="60.3516" rx="19.5313" ry="19.5313" style="stroke:#6F9F6F;stroke-width:0.7813;" width="458.5815" x="505.8899" y="1062.9639"/><text fill="#20351F" font-family="'Arial'" font-size="25" lengthAdjust="spacing" textLength="427.3315" x="521.5149" y="1101.7944">Ghi nh&#7853;n d&#242;ng th&#7901;i gian &#273;&#417;n h&#224;ng</text><ellipse cx="735.1807" cy="1171.7529" fill="none" rx="17.1875" ry="17.1875" style="stroke:#222222;stroke-width:1.5625;"/><ellipse cx="735.1807" cy="1171.7529" fill="#222222" rx="9.375" ry="9.375" style="stroke:#222222;stroke-width:1.5625;"/><line style="stroke:#5A5A5A;stroke-width:1.5625;" x1="735.1807" x2="735.1807" y1="112.9639" y2="144.2139"/><polygon fill="#5A5A5A" points="728.9307,128.5889,735.1807,144.2139,741.4307,128.5889,735.1807,134.8389" style="stroke:#5A5A5A;stroke-width:1.5625;stroke-linejoin:miter;stroke-miterlimit:10;"/><line style="stroke:#5A5A5A;stroke-width:1.5625;" x1="735.1807" x2="735.1807" y1="204.5654" y2="235.8154"/><polygon fill="#5A5A5A" points="728.9307,220.1904,735.1807,235.8154,741.4307,220.1904,735.1807,226.4404" style="stroke:#5A5A5A;stroke-width:1.5625;stroke-linejoin:miter;stroke-miterlimit:10;"/><line style="stroke:#5A5A5A;stroke-width:1.5625;" x1="735.1807" x2="735.1807" y1="296.167" y2="327.417"/><polygon fill="#5A5A5A" points="728.9307,311.792,735.1807,327.417,741.4307,311.792,735.1807,318.042" style="stroke:#5A5A5A;stroke-width:1.5625;stroke-linejoin:miter;stroke-miterlimit:10;"/><line style="stroke:#5A5A5A;stroke-width:1.5625;" x1="735.1807" x2="735.1807" y1="387.7686" y2="419.0186"/><polygon fill="#5A5A5A" points="728.9307,403.3936,735.1807,419.0186,741.4307,403.3936,735.1807,409.6436" style="stroke:#5A5A5A;stroke-width:1.5625;stroke-linejoin:miter;stroke-miterlimit:10;"/><line style="stroke:#5A5A5A;stroke-width:1.5625;" x1="735.1807" x2="735.1807" y1="479.3701" y2="510.6201"/><polygon fill="#5A5A5A" points="728.9307,494.9951,735.1807,510.6201,741.4307,494.9951,735.1807,501.2451" style="stroke:#5A5A5A;stroke-width:1.5625;stroke-linejoin:miter;stroke-miterlimit:10;"/><line style="stroke:#5A5A5A;stroke-width:1.5625;" x1="599.2188" x2="599.2188" y1="912.9639" y2="944.2139"/><polygon fill="#5A5A5A" points="592.9688,928.5889,599.2188,944.2139,605.4688,928.5889,599.2188,934.8389" style="stroke:#5A5A5A;stroke-width:1.5625;stroke-linejoin:miter;stroke-miterlimit:10;"/><line style="stroke:#5A5A5A;stroke-width:1.5625;" x1="231.2618" x2="202.5513" y1="818.2373" y2="818.2373"/><line style="stroke:#5A5A5A;stroke-width:1.5625;" x1="202.5513" x2="202.5513" y1="818.2373" y2="852.6123"/><polygon fill="#5A5A5A" points="196.3013,836.9873,202.5513,852.6123,208.8013,836.9873,202.5513,843.2373" style="stroke:#5A5A5A;stroke-width:1.5625;stroke-linejoin:miter;stroke-miterlimit:10;"/><line style="stroke:#5A5A5A;stroke-width:1.5625;" x1="570.5082" x2="599.2188" y1="818.2373" y2="818.2373"/><line style="stroke:#5A5A5A;stroke-width:1.5625;" x1="599.2188" x2="599.2188" y1="818.2373" y2="852.6123"/><polygon fill="#5A5A5A" points="592.9688,836.9873,599.2188,852.6123,605.4688,836.9873,599.2188,843.2373" style="stroke:#5A5A5A;stroke-width:1.5625;stroke-linejoin:miter;stroke-miterlimit:10;"/><line style="stroke:#5A5A5A;stroke-width:1.5625;" x1="202.5513" x2="202.5513" y1="912.9639" y2="1012.9639"/><line style="stroke:#5A5A5A;stroke-width:1.5625;" x1="202.5513" x2="716.4307" y1="1012.9639" y2="1012.9639"/><polygon fill="#5A5A5A" points="700.8057,1006.7139,716.4307,1012.9639,700.8057,1019.2139,707.0557,1012.9639" style="stroke:#5A5A5A;stroke-width:1.5625;stroke-linejoin:miter;stroke-miterlimit:10;"/><line style="stroke:#5A5A5A;stroke-width:1.5625;" x1="400.885" x2="400.885" y1="744.7998" y2="799.4873"/><polygon fill="#5A5A5A" points="394.635,783.8623,400.885,799.4873,407.135,783.8623,400.885,790.1123" style="stroke:#5A5A5A;stroke-width:1.5625;stroke-linejoin:miter;stroke-miterlimit:10;"/><line style="stroke:#5A5A5A;stroke-width:1.5625;" x1="1069.4763" x2="1069.4763" y1="715.6982" y2="770.3857"/><polygon fill="#5A5A5A" points="1063.2263,754.7607,1069.4763,770.3857,1075.7263,754.7607,1069.4763,761.0107" style="stroke:#5A5A5A;stroke-width:1.5625;stroke-linejoin:miter;stroke-miterlimit:10;"/><line style="stroke:#5A5A5A;stroke-width:1.5625;" x1="568.7561" x2="400.885" y1="620.9717" y2="620.9717"/><line style="stroke:#5A5A5A;stroke-width:1.5625;" x1="400.885" x2="400.885" y1="620.9717" y2="655.3467"/><polygon fill="#5A5A5A" points="394.635,639.7217,400.885,655.3467,407.135,639.7217,400.885,645.9717" style="stroke:#5A5A5A;stroke-width:1.5625;stroke-linejoin:miter;stroke-miterlimit:10;"/><line style="stroke:#5A5A5A;stroke-width:1.5625;" x1="901.6052" x2="1069.4763" y1="620.9717" y2="620.9717"/><line style="stroke:#5A5A5A;stroke-width:1.5625;" x1="1069.4763" x2="1069.4763" y1="620.9717" y2="655.3467"/><polygon fill="#5A5A5A" points="1063.2263,639.7217,1069.4763,655.3467,1075.7263,639.7217,1069.4763,645.9717" style="stroke:#5A5A5A;stroke-width:1.5625;stroke-linejoin:miter;stroke-miterlimit:10;"/><line style="stroke:#5A5A5A;stroke-width:1.5625;" x1="1069.4763" x2="1069.4763" y1="830.7373" y2="1012.9639"/><line style="stroke:#5A5A5A;stroke-width:1.5625;" x1="1069.4763" x2="753.9307" y1="1012.9639" y2="1012.9639"/><polygon fill="#5A5A5A" points="769.5557,1006.7139,753.9307,1012.9639,769.5557,1019.2139,763.3057,1012.9639" style="stroke:#5A5A5A;stroke-width:1.5625;stroke-linejoin:miter;stroke-miterlimit:10;"/><line style="stroke:#5A5A5A;stroke-width:1.5625;" x1="735.1807" x2="735.1807" y1="570.9717" y2="602.2217"/><polygon fill="#5A5A5A" points="728.9307,586.5967,735.1807,602.2217,741.4307,586.5967,735.1807,592.8467" style="stroke:#5A5A5A;stroke-width:1.5625;stroke-linejoin:miter;stroke-miterlimit:10;"/><line style="stroke:#5A5A5A;stroke-width:1.5625;" x1="735.1807" x2="735.1807" y1="1031.7139" y2="1062.9639"/><polygon fill="#5A5A5A" points="728.9307,1047.3389,735.1807,1062.9639,741.4307,1047.3389,735.1807,1053.5889" style="stroke:#5A5A5A;stroke-width:1.5625;stroke-linejoin:miter;stroke-miterlimit:10;"/><line style="stroke:#5A5A5A;stroke-width:1.5625;" x1="735.1807" x2="735.1807" y1="1123.3154" y2="1154.5654"/><polygon fill="#5A5A5A" points="728.9307,1138.9404,735.1807,1154.5654,741.4307,1138.9404,735.1807,1145.1904" style="stroke:#5A5A5A;stroke-width:1.5625;stroke-linejoin:miter;stroke-miterlimit:10;"/><?plantuml-src RLDDQzj04BthLmmk50ToY9tQZfr3yKUKG22qJOwzB9ASNIBj2ccTD2qzb1vBQKfFFPH6c58I28IcK90EFMp8_z0_wOoi90if1ecTUVFUcxToUY1ap18MWHzCsIpKhf9wXqK1D8Q9O673IV-7s1Ml0sXrxMOieDLPiIefPxuw4d8VfYnC0wipJ19rD5QXIk1HPqW_n-eoJuj3eO_XZGCmOjx1Vg9cqg_n6qDtTMD87PNuGL9NksxVxRfOjSqjJZMYlRBQQH5Y8bYafF-0s7NTrKdN0jZyu_wmtUxTD-zbEbZSrIovrUcvevKUwMpSCK-Uz5lzLhNCBLz_CbgRj9stTbn78WgP31Phs-8r661Fw31ucCYQst97oELewiD8bCNx6Ln_Beilm5MPPxewVCMRm7V-HmCtftWuDAUWEPCSj3APT59QmncCULbyb92M-Ln2pClyB5f6d3cFQ4B1Fl9_MdS6roVtN7ZSGUH5JC3VoAs5H21J8AaiiM_UnH2PEOtdymXV9eEcBFE_C_3CrH8Yjibu13fXeD6xX0Eku34-pLLTMNV459hF-CtbJKOYwFJCitTukeIdG49pp6V7o5PnL8iyVx642GwsSUIxGBOyKxYSCEVIddyfcsYc8luc0Ard4fq1aEmchUENnGUFOuutbsKnz-2LoRnwnpljFOg4urOO18cYxBZAfi9fQ5oVO0wMQeCa0loFG7CB0z6ry69qgon-7jTMby7ZPDkSnVKA8Jx5UeLCjOg9H_fYwYpOzgWBNbbSiCKzLHbiSb5RfZqo2HW9fawQbAcX4Gg0Q0TR2kT8x8UsBMEkToJr5x0Gjjbzywk-9GmJluPRlNg03Fy3?></g></svg>