<svg xmlns="http://www.w3.org/2000/svg" xmlns:xlink="http://www.w3.org/1999/xlink" contentStyleType="text/css" data-diagram-type="ACTIVITY" height="1132.8125px" preserveAspectRatio="none" style="width:1090px;height:1132px;background:#FFFFFF;" version="1.1" viewBox="0 0 1090 1132" width="1090.625px" zoomAndPan="magnify"><?plantuml 1.2026.6?><defs/><g><g class="title" data-source-line="25"><text fill="#000000" font-family="'Arial'" font-size="21.875" font-weight="700" lengthAdjust="spacing" textLength="377.1729" x="355.8594" y="51.5549">Bi&#7875;u &#273;&#7891; ho&#7841;t &#273;&#7897;ng qu&#7843;n l&#253; kho</text></g><ellipse cx="551.709" cy="97.3389" fill="#7FB07F" rx="15.625" ry="15.625" style="stroke:#222222;stroke-width:1.5625;"/><rect fill="#EAF3EA" height="60.3516" rx="19.5313" ry="19.5313" style="stroke:#6F9F6F;stroke-width:0.7813;" width="391.0767" x="356.1707" y="144.2139"/><text fill="#20351F" font-family="'Arial'" font-size="25" lengthAdjust="spacing" textLength="359.8267" x="371.7957" y="183.0444">T&#7841;o phi&#7871;u nh&#7853;p h&#224;ng theo l&#244;</text><rect fill="#EAF3EA" height="60.3516" rx="19.5313" ry="19.5313" style="stroke:#6F9F6F;stroke-width:0.7813;" width="549.5361" x="276.9409" y="235.8154"/><text fill="#20351F" font-family="'Arial'" font-size="25" lengthAdjust="spacing" textLength="518.2861" x="292.5659" y="274.646">Khai b&#225;o NCC, kho nh&#7853;n, danh s&#225;ch h&#224;ng</text><polygon fill="#FFF3D6" points="404.9271,327.417,698.4909,327.417,717.2409,346.167,698.4909,364.917,404.9271,364.917,386.1771,346.167,404.9271,327.417" style="stroke:#C9A227;stroke-width:0.7813;stroke-linejoin:miter;stroke-miterlimit:10;"/><text fill="#20351F" font-family="'Arial'" font-size="23.4375" lengthAdjust="spacing" textLength="293.5638" x="404.9271" y="354.2809">Qu&#7843;n l&#253; theo Serial/IMEI?</text><text fill="#000000" font-family="'Arial'" font-size="25" lengthAdjust="spacing" textLength="32.7515" x="353.4256" y="340.271">C&#243;</text><text fill="#000000" font-family="'Arial'" font-size="25" lengthAdjust="spacing" textLength="79.248" x="717.2409" y="340.271">Kh&#244;ng</text><rect fill="#EAF3EA" height="60.3516" rx="19.5313" ry="19.5313" style="stroke:#6F9F6F;stroke-width:0.7813;" width="519.9097" x="25" y="380.542"/><text fill="#20351F" font-family="'Arial'" font-size="25" lengthAdjust="spacing" textLength="488.6597" x="40.625" y="419.3726">Nh&#7853;p/&#273;&#7883;nh danh Serial/IMEI t&#7915;ng &#273;&#417;n v&#7883;</text><rect fill="#EAF3EA" height="60.3516" rx="19.5313" ry="19.5313" style="stroke:#6F9F6F;stroke-width:0.7813;" width="455.8472" x="57.0313" y="472.1436"/><text fill="#20351F" font-family="'Arial'" font-size="25" lengthAdjust="spacing" textLength="424.5972" x="72.6563" y="510.9741">Ki&#7875;m tra h&#7907;p l&#7879; (IMEI 15 s&#7889;, Luhn)</text><rect fill="#EAF3EA" height="60.3516" rx="19.5313" ry="19.5313" style="stroke:#6F9F6F;stroke-width:0.7813;" width="434.3506" x="67.7795" y="563.7451"/><text fill="#20351F" font-family="'Arial'" font-size="25" lengthAdjust="spacing" textLength="403.1006" x="83.4045" y="602.5757">Sinh &#273;&#417;n v&#7883; t&#7891;n kho (Stock Item)</text><rect fill="#EAF3EA" height="60.3516" rx="19.5313" ry="19.5313" style="stroke:#6F9F6F;stroke-width:0.7813;" width="484.6069" x="576.1597" y="380.542"/><text fill="#20351F" font-family="'Arial'" font-size="25" lengthAdjust="spacing" textLength="453.3569" x="591.7847" y="419.3726">C&#7853;p nh&#7853;t s&#7889; l&#432;&#7907;ng t&#7891;n th&#244;ng th&#432;&#7901;ng</text><polygon fill="#FFF3D6" points="551.709,633.4717,570.459,652.2217,551.709,670.9717,532.959,652.2217,551.709,633.4717" style="stroke:#C9A227;stroke-width:0.7813;stroke-linejoin:miter;stroke-miterlimit:10;"/><rect fill="#EAF3EA" height="60.3516" rx="19.5313" ry="19.5313" style="stroke:#6F9F6F;stroke-width:0.7813;" width="224.7681" x="439.325" y="702.2217"/><text fill="#20351F" font-family="'Arial'" font-size="25" lengthAdjust="spacing" textLength="193.5181" x="454.95" y="741.0522">T&#237;nh l&#7841;i t&#7891;n kho</text><rect fill="#EAF3EA" height="60.3516" rx="19.5313" ry="19.5313" style="stroke:#6F9F6F;stroke-width:0.7813;" width="567.6025" x="267.9077" y="793.8232"/><text fill="#20351F" font-family="'Arial'" font-size="25" lengthAdjust="spacing" textLength="536.3525" x="283.5327" y="832.6538">Ghi nh&#7853;n bi&#7871;n &#273;&#7897;ng kho (Stock Movement)</text><rect fill="#EAF3EA" height="60.3516" rx="19.5313" ry="19.5313" style="stroke:#6F9F6F;stroke-width:0.7813;" width="540.5518" x="281.4331" y="885.4248"/><text fill="#20351F" font-family="'Arial'" font-size="25" lengthAdjust="spacing" textLength="509.3018" x="297.0581" y="924.2554">Theo d&#245;i tr&#7841;ng th&#225;i thi&#7871;t b&#7883; / x&#7917; l&#253; &#273;&#7893;i tr&#7843;</text><rect fill="#EAF3EA" height="60.3516" rx="19.5313" ry="19.5313" style="stroke:#6F9F6F;stroke-width:0.7813;" width="436.0596" x="333.6792" y="977.0264"/><text fill="#20351F" font-family="'Arial'" font-size="25" lengthAdjust="spacing" textLength="404.8096" x="349.3042" y="1015.8569">C&#7843;nh b&#225;o h&#224;ng t&#7891;n v&#432;&#7907;t ng&#432;&#7905;ng</text><ellipse cx="551.709" cy="1085.8154" fill="none" rx="17.1875" ry="17.1875" style="stroke:#222222;stroke-width:1.5625;"/><ellipse cx="551.709" cy="1085.8154" fill="#222222" rx="9.375" ry="9.375" style="stroke:#222222;stroke-width:1.5625;"/><line style="stroke:#5A5A5A;stroke-width:1.5625;" x1="551.709" x2="551.709" y1="112.9639" y2="144.2139"/><polygon fill="#5A5A5A" points="545.459,128.5889,551.709,144.2139,557.959,128.5889,551.709,134.8389" style="stroke:#5A5A5A;stroke-width:1.5625;stroke-linejoin:miter;stroke-miterlimit:10;"/><line style="stroke:#5A5A5A;stroke-width:1.5625;" x1="551.709" x2="551.709" y1="204.5654" y2="235.8154"/><polygon fill="#5A5A5A" points="545.459,220.1904,551.709,235.8154,557.959,220.1904,551.709,226.4404" style="stroke:#5A5A5A;stroke-width:1.5625;stroke-linejoin:miter;stroke-miterlimit:10;"/><line style="stroke:#5A5A5A;stroke-width:1.5625;" x1="284.9548" x2="284.9548" y1="440.8936" y2="472.1436"/><polygon fill="#5A5A5A" points="278.7048,456.5186,284.9548,472.1436,291.2048,456.5186,284.9548,462.7686" style="stroke:#5A5A5A;stroke-width:1.5625;stroke-linejoin:miter;stroke-miterlimit:10;"/><line style="stroke:#5A5A5A;stroke-width:1.5625;" x1="284.9548" x2="284.9548" y1="532.4951" y2="563.7451"/><polygon fill="#5A5A5A" points="278.7048,548.1201,284.9548,563.7451,291.2048,548.1201,284.9548,554.3701" style="stroke:#5A5A5A;stroke-width:1.5625;stroke-linejoin:miter;stroke-miterlimit:10;"/><line style="stroke:#5A5A5A;stroke-width:1.5625;" x1="386.1771" x2="284.9548" y1="346.167" y2="346.167"/><line style="stroke:#5A5A5A;stroke-width:1.5625;" x1="284.9548" x2="284.9548" y1="346.167" y2="380.542"/><polygon fill="#5A5A5A" points="278.7048,364.917,284.9548,380.542,291.2048,364.917,284.9548,371.167" style="stroke:#5A5A5A;stroke-width:1.5625;stroke-linejoin:miter;stroke-miterlimit:10;"/><line style="stroke:#5A5A5A;stroke-width:1.5625;" x1="717.2409" x2="818.4631" y1="346.167" y2="346.167"/><line style="stroke:#5A5A5A;stroke-width:1.5625;" x1="818.4631" x2="818.4631" y1="346.167" y2="380.542"/><polygon fill="#5A5A5A" points="812.2131,364.917,818.4631,380.542,824.7131,364.917,818.4631,371.167" style="stroke:#5A5A5A;stroke-width:1.5625;stroke-linejoin:miter;stroke-miterlimit:10;"/><line style="stroke:#5A5A5A;stroke-width:1.5625;" x1="284.9548" x2="284.9548" y1="624.0967" y2="652.2217"/><line style="stroke:#5A5A5A;stroke-width:1.5625;" x1="284.9548" x2="532.959" y1="652.2217" y2="652.2217"/><polygon fill="#5A5A5A" points="517.334,645.9717,532.959,652.2217,517.334,658.4717,523.584,652.2217" style="stroke:#5A5A5A;stroke-width:1.5625;stroke-linejoin:miter;stroke-miterlimit:10;"/><line style="stroke:#5A5A5A;stroke-width:1.5625;" x1="818.4631" x2="818.4631" y1="440.8936" y2="652.2217"/><line style="stroke:#5A5A5A;stroke-width:1.5625;" x1="818.4631" x2="570.459" y1="652.2217" y2="652.2217"/><polygon fill="#5A5A5A" points="586.084,645.9717,570.459,652.2217,586.084,658.4717,579.834,652.2217" style="stroke:#5A5A5A;stroke-width:1.5625;stroke-linejoin:miter;stroke-miterlimit:10;"/><line style="stroke:#5A5A5A;stroke-width:1.5625;" x1="551.709" x2="551.709" y1="296.167" y2="327.417"/><polygon fill="#5A5A5A" points="545.459,311.792,551.709,327.417,557.959,311.792,551.709,318.042" style="stroke:#5A5A5A;stroke-width:1.5625;stroke-linejoin:miter;stroke-miterlimit:10;"/><line style="stroke:#5A5A5A;stroke-width:1.5625;" x1="551.709" x2="551.709" y1="670.9717" y2="702.2217"/><polygon fill="#5A5A5A" points="545.459,686.5967,551.709,702.2217,557.959,686.5967,551.709,692.8467" style="stroke:#5A5A5A;stroke-width:1.5625;stroke-linejoin:miter;stroke-miterlimit:10;"/><line style="stroke:#5A5A5A;stroke-width:1.5625;" x1="551.709" x2="551.709" y1="762.5732" y2="793.8232"/><polygon fill="#5A5A5A" points="545.459,778.1982,551.709,793.8232,557.959,778.1982,551.709,784.4482" style="stroke:#5A5A5A;stroke-width:1.5625;stroke-linejoin:miter;stroke-miterlimit:10;"/><line style="stroke:#5A5A5A;stroke-width:1.5625;" x1="551.709" x2="551.709" y1="854.1748" y2="885.4248"/><polygon fill="#5A5A5A" points="545.459,869.7998,551.709,885.4248,557.959,869.7998,551.709,876.0498" style="stroke:#5A5A5A;stroke-width:1.5625;stroke-linejoin:miter;stroke-miterlimit:10;"/><line style="stroke:#5A5A5A;stroke-width:1.5625;" x1="551.709" x2="551.709" y1="945.7764" y2="977.0264"/><polygon fill="#5A5A5A" points="545.459,961.4014,551.709,977.0264,557.959,961.4014,551.709,967.6514" style="stroke:#5A5A5A;stroke-width:1.5625;stroke-linejoin:miter;stroke-miterlimit:10;"/><line style="stroke:#5A5A5A;stroke-width:1.5625;" x1="551.709" x2="551.709" y1="1037.3779" y2="1068.6279"/><polygon fill="#5A5A5A" points="545.459,1053.0029,551.709,1068.6279,557.959,1053.0029,551.709,1059.2529" style="stroke:#5A5A5A;stroke-width:1.5625;stroke-linejoin:miter;stroke-miterlimit:10;"/><?plantuml-src RL9DRzf04BtxLupI2qX8O2WGu521mLL44wc2Fx3WXLrXxr9x8VrGJpdqq5CKzT13fIAE5LAbfXUigWT7-H_-9vrTas0f5GVZcJVllNdZQC75aeGa08_EoCfNhXJgWWGKJheX9_w95VqFCUBlATYDV7F9mQvNSfM84KzUSZ676V4Zckjqmr1UEjAN8JohT_NFodN9LF4rL-_WWmNG8zF5F9GhuHtmWwvR6tHrHuOU3G_LXjjo6ovMy-QojmEYMgdLROteSn98uJqXTbstrc_a07b-fzMjLfl7vb6cZiMH8k63JjFjLPfQP_38t7_UibksMUQ1hzNldVQhriTyN9Syy8cWsTfvyGCOOCoLJvycSkhQRW-vBANxqEDfVBM2k-iqlW4cq_r6cPUlU8atgtI_5U0dVs31f1LfurPxZ1W9IyRJ_TyL29RkTqjWoNSSK8nAXDzshFQG4GwJ194NZbFIynbKbC0ZWa6KRAOi6-jOV0Q5rqSnGpEY-eigdvqFpbuKTKb0mKb-5N6pzeKHBMkVdv7B4ERmeDBu1zgvkxxV25WZgAEdXdhL05H8WANnTWb-6d-2Wfcmwn2byNK9NgsOA1huY2FhaKAJtWYpI66av7G1Pue62ANukK9Xo99RCJVk79E8sLOPLl3lVwAW3iXmA8F5Xov_qm5GuV4PHfliKDF7WFbH3iDyoVWXFPZesCNZYN9spkMQ1bGejDGUwmIzv3VIXCXcn19DQgwcOA8NAiFRDDwPn3NTbmoynN57du9bvpjSrhXPcpqKYBd-iz7E8oMN_m00?></g></svg>