<svg xmlns="http://www.w3.org/2000/svg" xmlns:xlink="http://www.w3.org/1999/xlink" contentStyleType="text/css" data-diagram-type="DESCRIPTION" height="2978.125px" preserveAspectRatio="none" style="width:1568px;height:2978px;background:#FFFFFF;" version="1.1" viewBox="0 0 1568 2978" width="1568.75px" zoomAndPan="magnify"><?plantuml 1.2026.6?><defs/><g><!--cluster T?i kho?n (d?ng chung)--><g class="cluster" data-qualified-name="T.i kho.n .d.ng chung." data-source-line="33" id="ent0006"><rect fill="#FFFFFF" height="717.1875" rx="3.9063" ry="3.9063" style="stroke:#000000;stroke-width:1.5625;" width="339.0625" x="793.5938" y="2239.0625"/><text fill="#000000" font-family="'Times New Roman'" font-size="23.4375" font-weight="700" lengthAdjust="spacing" textLength="314.2662" x="805.9919" y="2263.9427">T&#224;i kho&#7843;n (d&#249;ng chung)</text></g><!--cluster T?m & xem s?n ph?m--><g class="cluster" data-qualified-name="T.m . xem s.n ph.m" data-source-line="39" id="ent0011"><rect fill="#FFFFFF" height="887.5" rx="3.9063" ry="3.9063" style="stroke:#000000;stroke-width:1.5625;" width="408.7656" x="757.9688" y="1314.0625"/><text fill="#000000" font-family="'Times New Roman'" font-size="23.4375" font-weight="700" lengthAdjust="spacing" textLength="277.1072" x="823.7979" y="1338.9427">T&#236;m &amp; xem s&#7843;n ph&#7849;m</text></g><!--cluster Mua h?ng & thanh to?n--><g class="cluster" data-qualified-name="Mua h.ng . thanh to.n" data-source-line="46" id="ent0017"><rect fill="#FFFFFF" height="521.875" rx="3.9063" ry="3.9063" style="stroke:#000000;stroke-width:1.5625;" width="857.6094" x="294.9688" y="10.9375"/><text fill="#000000" font-family="'Times New Roman'" font-size="23.4375" font-weight="700" lengthAdjust="spacing" textLength="311.7485" x="567.8992" y="35.8177">Mua h&#224;ng &amp; thanh to&#225;n</text></g><!--cluster B?o h?nh & h? tr?--><g class="cluster" data-qualified-name="B.o h.nh . h. tr." data-source-line="53" id="ent0023"><rect fill="#FFFFFF" height="706.25" rx="3.9063" ry="3.9063" style="stroke:#000000;stroke-width:1.5625;" width="387.4531" x="768.625" y="570.3125"/><text fill="#000000" font-family="'Times New Roman'" font-size="23.4375" font-weight="700" lengthAdjust="spacing" textLength="240.3831" x="842.16" y="595.1927">B&#7843;o h&#224;nh &amp; h&#7895; tr&#7907;</text></g><!--entity G1--><g class="entity" data-qualified-name="T.i kho.n .d.ng chung..G1" data-source-line="34" id="ent0007"><ellipse cx="962.3393" cy="2337.4986" fill="#FFFFFF" rx="92.4018" ry="41.8892" style="stroke:#000000;stroke-width:0.7813;"/><text fill="#000000" font-family="'Times New Roman'" font-size="23.4375" lengthAdjust="spacing" textLength="128.6545" x="898.0121" y="2334.0218">&#272;&#259;ng nh&#7853;p</text><text fill="#000000" font-family="'Times New Roman'" font-size="23.4375" lengthAdjust="spacing" textLength="108.2497" x="908.2145" y="2361.3045">(UC-G01)</text></g><!--entity G2--><g class="entity" data-qualified-name="T.i kho.n .d.ng chung..G2" data-source-line="35" id="ent0008"><ellipse cx="962.3387" cy="2523.4321" fill="#FFFFFF" rx="88.6825" ry="42.2602" style="stroke:#000000;stroke-width:0.7813;"/><text fill="#000000" font-family="'Times New Roman'" font-size="23.4375" lengthAdjust="spacing" textLength="121.9826" x="901.3474" y="2519.4127">&#272;&#259;ng xu&#7845;t</text><text fill="#000000" font-family="'Times New Roman'" font-size="23.4375" lengthAdjust="spacing" textLength="108.2497" x="908.2139" y="2546.6954">(UC-G02)</text></g><!--entity G3--><g class="entity" data-qualified-name="T.i kho.n .d.ng chung..G3" data-source-line="36" id="ent0009"><ellipse cx="962.3374" cy="2707.82" fill="#FFFFFF" rx="109.228" ry="40.8044" style="stroke:#000000;stroke-width:0.7813;"/><text fill="#000000" font-family="'Times New Roman'" font-size="23.4375" lengthAdjust="spacing" textLength="157.9399" x="883.3674" y="2705.9679">&#272;&#7893;i m&#7853;t kh&#7849;u</text><text fill="#000000" font-family="'Times New Roman'" font-size="23.4375" lengthAdjust="spacing" textLength="108.2497" x="908.2125" y="2733.2506">(UC-G03)</text></g><!--entity G4--><g class="entity" data-qualified-name="T.i kho.n .d.ng chung..G4" data-source-line="37" id="ent0010"><ellipse cx="962.3497" cy="2890.6307" fill="#FFFFFF" rx="120.4434" ry="40.3807" style="stroke:#000000;stroke-width:0.7813;"/><text fill="#000000" font-family="'Times New Roman'" font-size="23.4375" lengthAdjust="spacing" textLength="176.96" x="873.8697" y="2889.4304">C&#7853;p nh&#7853;t h&#7891; s&#417;</text><text fill="#000000" font-family="'Times New Roman'" font-size="23.4375" lengthAdjust="spacing" textLength="108.2497" x="908.2248" y="2916.7131">(UC-G04)</text></g><!--entity C1--><g class="entity" data-qualified-name="T.m . xem s.n ph.m.C1" data-source-line="40" id="ent0012"><ellipse cx="962.3414" cy="1773.4313" fill="#FFFFFF" rx="101.4351" ry="41.1188" style="stroke:#000000;stroke-width:0.7813;"/><text fill="#000000" font-family="'Times New Roman'" font-size="23.4375" lengthAdjust="spacing" textLength="144.9051" x="889.8888" y="1771.1021">T&#236;m ki&#7871;m SP</text><text fill="#000000" font-family="'Times New Roman'" font-size="23.4375" lengthAdjust="spacing" textLength="106.4529" x="909.1149" y="1798.3848">(UC-C01)</text></g><!--entity C2--><g class="entity" data-qualified-name="T.m . xem s.n ph.m.C2" data-source-line="41" id="ent0013"><ellipse cx="962.3415" cy="1590.6194" fill="#FFFFFF" rx="140.154" ry="39.8694" style="stroke:#000000;stroke-width:0.7813;"/><text fill="#000000" font-family="'Times New Roman'" font-size="23.4375" lengthAdjust="spacing" textLength="210.1021" x="857.2904" y="1590.2203">L&#7885;c theo th&#244;ng s&#7889;</text><text fill="#000000" font-family="'Times New Roman'" font-size="23.4375" lengthAdjust="spacing" textLength="106.4529" x="909.115" y="1617.503">(UC-C02)</text></g><!--entity C3--><g class="entity" data-qualified-name="T.m . xem s.n ph.m.C3" data-source-line="42" id="ent0014"><ellipse cx="962.3383" cy="1409.377" fill="#FFFFFF" rx="179.3851" ry="39.627" style="stroke:#000000;stroke-width:0.7813;"/><text fill="#000000" font-family="'Times New Roman'" font-size="23.4375" lengthAdjust="spacing" textLength="277.0615" x="823.8075" y="1409.9039">Xem chi ti&#7871;t &amp; th&#244;ng s&#7889;</text><text fill="#000000" font-family="'Times New Roman'" font-size="23.4375" lengthAdjust="spacing" textLength="106.4529" x="909.1118" y="1437.1866">(UC-C03)</text></g><!--entity C4--><g class="entity" data-qualified-name="T.m . xem s.n ph.m.C4" data-source-line="43" id="ent0015"><ellipse cx="962.3435" cy="2137.4955" fill="#FFFFFF" rx="143.8435" ry="39.808" style="stroke:#000000;stroke-width:0.7813;"/><text fill="#000000" font-family="'Times New Roman'" font-size="23.4375" lengthAdjust="spacing" textLength="216.2018" x="854.2426" y="2137.1938">So s&#225;nh s&#7843;n ph&#7849;m</text><text fill="#000000" font-family="'Times New Roman'" font-size="23.4375" lengthAdjust="spacing" textLength="106.4529" x="909.117" y="2164.4765">(UC-C04)</text></g><!--entity C5--><g class="entity" data-qualified-name="T.m . xem s.n ph.m.C5" data-source-line="44" id="ent0016"><ellipse cx="962.3418" cy="1956.2537" fill="#FFFFFF" rx="155.6074" ry="39.6443" style="stroke:#000000;stroke-width:0.7813;"/><text fill="#000000" font-family="'Times New Roman'" font-size="23.4375" lengthAdjust="spacing" textLength="235.5766" x="844.5535" y="1956.2129">Xem g&#7907;i &#253; mua k&#232;m</text><text fill="#000000" font-family="'Times New Roman'" font-size="23.4375" lengthAdjust="spacing" textLength="106.4529" x="909.1153" y="1983.4956">(UC-C05)</text></g><!--entity C6--><g class="entity" data-qualified-name="Mua h.ng . thanh to.n.C6" data-source-line="47" id="ent0018"><ellipse cx="962.3462" cy="287.5007" fill="#FFFFFF" rx="134.0181" ry="39.985" style="stroke:#000000;stroke-width:0.7813;"/><text fill="#000000" font-family="'Times New Roman'" font-size="23.4375" lengthAdjust="spacing" textLength="199.9283" x="862.382" y="286.9189">Qu&#7843;n l&#253; gi&#7887; h&#224;ng</text><text fill="#000000" font-family="'Times New Roman'" font-size="23.4375" lengthAdjust="spacing" textLength="106.4529" x="909.1197" y="314.2016">(UC-C06)</text></g><!--entity C7--><g class="entity" data-qualified-name="Mua h.ng . thanh to.n.C7" data-source-line="48" id="ent0019"><ellipse cx="465.5314" cy="378.1244" fill="#FFFFFF" rx="80.8439" ry="43.1244" style="stroke:#000000;stroke-width:0.7813;"/><text fill="#000000" font-family="'Times New Roman'" font-size="23.4375" lengthAdjust="spacing" textLength="108.1123" x="411.4753" y="372.8635">&#272;&#7863;t h&#224;ng</text><text fill="#000000" font-family="'Times New Roman'" font-size="23.4375" lengthAdjust="spacing" textLength="106.4529" x="412.305" y="400.1462">(UC-C07)</text></g><!--entity C9--><g class="entity" data-qualified-name="Mua h.ng . thanh to.n.C9" data-source-line="49" id="ent0020"><ellipse cx="962.3403" cy="106.2574" fill="#FFFFFF" rx="165.2309" ry="39.5387" style="stroke:#000000;stroke-width:0.7813;"/><text fill="#000000" font-family="'Times New Roman'" font-size="23.4375" lengthAdjust="spacing" textLength="251.358" x="836.6612" y="106.386">Thanh to&#225;n &#273;&#417;n h&#224;ng</text><text fill="#000000" font-family="'Times New Roman'" font-size="23.4375" lengthAdjust="spacing" textLength="106.4529" x="909.1138" y="133.6687">(UC-C09)</text></g><!--entity C8--><g class="entity" data-qualified-name="Mua h.ng . thanh to.n.C8" data-source-line="50" id="ent0021"><ellipse cx="962.3423" cy="468.7431" fill="#FFFFFF" rx="153.936" ry="39.665" style="stroke:#000000;stroke-width:0.7813;"/><text fill="#000000" font-family="'Times New Roman'" font-size="23.4375" lengthAdjust="spacing" textLength="232.83" x="845.9273" y="468.6692">T&#237;nh &amp; ch&#7885;n tr&#7843; g&#243;p</text><text fill="#000000" font-family="'Times New Roman'" font-size="23.4375" lengthAdjust="spacing" textLength="106.4529" x="909.1158" y="495.9519">(UC-C08)</text></g><!--entity C10--><g class="entity" data-qualified-name="Mua h.ng . thanh to.n.C10" data-source-line="51" id="ent0022"><ellipse cx="465.5245" cy="193.75" fill="#FFFFFF" rx="145.5557" ry="39.7813" style="stroke:#000000;stroke-width:0.7813;"/><text fill="#000000" font-family="'Times New Roman'" font-size="23.4375" lengthAdjust="spacing" textLength="219.0285" x="356.0103" y="193.4908">Theo d&#245;i &#273;&#417;n h&#224;ng</text><text fill="#000000" font-family="'Times New Roman'" font-size="23.4375" lengthAdjust="spacing" textLength="106.4529" x="412.298" y="220.7735">(UC-C10)</text></g><!--entity C11--><g class="entity" data-qualified-name="B.o h.nh . h. tr..C11" data-source-line="54" id="ent0024"><ellipse cx="962.3477" cy="1210.9322" fill="#FFFFFF" rx="137.5352" ry="39.9165" style="stroke:#000000;stroke-width:0.7813;"/><text fill="#000000" font-family="'Times New Roman'" font-size="23.4375" lengthAdjust="spacing" textLength="205.7648" x="859.4653" y="1210.4585">Tra c&#7913;u b&#7843;o h&#224;nh</text><text fill="#000000" font-family="'Times New Roman'" font-size="23.4375" lengthAdjust="spacing" textLength="106.4529" x="909.1212" y="1237.7412">(UC-C11)</text></g><!--entity C14--><g class="entity" data-qualified-name="B.o h.nh . h. tr..C14" data-source-line="55" id="ent0025"><ellipse cx="962.3372" cy="848.4427" fill="#FFFFFF" rx="168.7278" ry="39.5052" style="stroke:#000000;stroke-width:0.7813;"/><text fill="#000000" font-family="'Times New Roman'" font-size="23.4375" lengthAdjust="spacing" textLength="257.0801" x="833.7972" y="848.6251">G&#7917;i y&#234;u c&#7847;u b&#7843;o h&#224;nh</text><text fill="#000000" font-family="'Times New Roman'" font-size="23.4375" lengthAdjust="spacing" textLength="106.4529" x="909.1107" y="875.9078">(UC-C14)</text></g><!--entity C12--><g class="entity" data-qualified-name="B.o h.nh . h. tr..C12" data-source-line="56" id="ent0026"><ellipse cx="962.34" cy="1029.695" fill="#FFFFFF" rx="128.0588" ry="40.1169" style="stroke:#000000;stroke-width:0.7813;"/><text fill="#000000" font-family="'Times New Roman'" font-size="23.4375" lengthAdjust="spacing" textLength="190.0063" x="867.3369" y="1028.906">G&#7917;i ticket h&#7895; tr&#7907;</text><text fill="#000000" font-family="'Times New Roman'" font-size="23.4375" lengthAdjust="spacing" textLength="106.4529" x="909.1135" y="1056.1887">(UC-C12)</text></g><!--entity C13--><g class="entity" data-qualified-name="B.o h.nh . h. tr..C13" data-source-line="57" id="ent0027"><ellipse cx="962.3439" cy="667.1875" fill="#FFFFFF" rx="118.7033" ry="40.375" style="stroke:#000000;stroke-width:0.7813;"/><text fill="#000000" font-family="'Times New Roman'" font-size="23.4375" lengthAdjust="spacing" textLength="174.3279" x="875.18" y="665.996">Theo d&#245;i ticket</text><text fill="#000000" font-family="'Times New Roman'" font-size="23.4375" lengthAdjust="spacing" textLength="106.4529" x="909.1174" y="693.2787">(UC-C13)</text></g><!--entity C--><g class="entity" data-qualified-name="C" data-source-line="28" id="ent0001"><ellipse cx="78.7376" cy="1374.6406" fill="#FFFFFF" rx="12.5" ry="12.5" style="stroke:#000000;stroke-width:0.7813;"/><path d="M78.7376,1387.1406 L78.7376,1429.3281 M58.4251,1399.6406 L99.0501,1399.6406 M78.7376,1429.3281 L58.4251,1452.7656 M78.7376,1429.3281 L99.0501,1452.7656" fill="none" style="stroke:#000000;stroke-width:0.7813;"/><text fill="#000000" font-family="'Times New Roman'" font-size="23.4375" lengthAdjust="spacing" textLength="138.7253" x="9.375" y="1476.8646">Kh&#225;ch h&#224;ng</text></g><!--entity G--><g class="entity" data-qualified-name="G" data-source-line="29" id="ent0002"><ellipse cx="465.5385" cy="1480.8906" fill="#FFFFFF" rx="12.5" ry="12.5" style="stroke:#000000;stroke-width:0.7813;"/><path d="M465.5385,1493.3906 L465.5385,1535.5781 M445.226,1505.8906 L485.851,1505.8906 M465.5385,1535.5781 L445.226,1559.0156 M465.5385,1535.5781 L485.851,1559.0156" fill="none" style="stroke:#000000;stroke-width:0.7813;"/><text fill="#000000" font-family="'Times New Roman'" font-size="23.4375" lengthAdjust="spacing" textLength="172.5769" x="379.25" y="1583.1146">Kh&#225;ch v&#227;ng lai</text></g><!--entity F--><g class="entity" data-qualified-name="F" data-source-line="30" id="ent0003"><ellipse cx="1429.8219" cy="421.5156" fill="#FFFFFF" rx="12.5" ry="12.5" style="stroke:#000000;stroke-width:0.7813;"/><path d="M1429.8219,434.0156 L1429.8219,476.2031 M1409.5094,446.5156 L1450.1344,446.5156 M1429.8219,476.2031 L1409.5094,499.6406 M1429.8219,476.2031 L1450.1344,499.6406" fill="none" style="stroke:#000000;stroke-width:0.7813;"/><text fill="#000000" font-family="'Times New Roman'" font-size="23.4375" lengthAdjust="spacing" textLength="184.1125" x="1337.7656" y="523.7396">&#272;&#417;n v&#7883; t&#224;i ch&#237;nh</text></g><!--entity P--><g class="entity" data-qualified-name="P" data-source-line="31" id="ent0004"><ellipse cx="1429.8298" cy="59.0156" fill="#FFFFFF" rx="12.5" ry="12.5" style="stroke:#000000;stroke-width:0.7813;"/><path d="M1429.8298,71.5156 L1429.8298,113.7031 M1409.5173,84.0156 L1450.1423,84.0156 M1429.8298,113.7031 L1409.5173,137.1406 M1429.8298,113.7031 L1450.1423,137.1406" fill="none" style="stroke:#000000;stroke-width:0.7813;"/><text fill="#000000" font-family="'Times New Roman'" font-size="23.4375" lengthAdjust="spacing" textLength="232.4409" x="1313.6094" y="161.2396">C&#7893;ng TT/Ng&#226;n h&#224;ng</text></g><!--link C to G--><g class="link" data-entity-1="ent0001" data-entity-2="ent0002" data-link-type="extension" data-source-line="32" id="lnk5"><path d="M148.7813,1475 C213.4375,1475 281.5469,1475 350.9531,1475" fill="none" id="C-to-G" style="stroke:#000000;stroke-width:1.5625;"/><polygon fill="none" points="379.0781,1475,350.9531,1465.625,350.9531,1484.375,379.0781,1475" style="stroke:#000000;stroke-width:1.5625;stroke-linejoin:miter;stroke-miterlimit:10;"/></g><!--link G to G1--><g class="link" data-entity-1="ent0002" data-entity-2="ent0007" data-link-type="dependency" data-source-line="59" id="lnk28"><path d="M422.6094,1588.9531 C422.6094,1777.1875 422.6094,2337.5 422.6094,2337.5 C422.6094,2337.5 707.4375,2337.5 861.75,2337.5" fill="none" id="G-to-G1" style="stroke:#000000;stroke-width:1.5625;"/><polygon fill="#000000" points="869.5625,2337.5,855.5,2331.25,861.75,2337.5,855.5,2343.75,869.5625,2337.5" style="stroke:#000000;stroke-width:1.5625;stroke-linejoin:miter;stroke-miterlimit:10;"/></g><!--link C to G2--><g class="link" data-entity-1="ent0001" data-entity-2="ent0008" data-link-type="dependency" data-source-line="60" id="lnk29"><path d="M113.2344,1483.0625 C113.2344,1714.5156 113.2344,2523.4375 113.2344,2523.4375 C113.2344,2523.4375 647.2656,2523.4375 865.2656,2523.4375" fill="none" id="C-to-G2" style="stroke:#000000;stroke-width:1.5625;"/><polygon fill="#000000" points="873.0781,2523.4375,859.0156,2517.1875,865.2656,2523.4375,859.0156,2529.6875,873.0781,2523.4375" style="stroke:#000000;stroke-width:1.5625;stroke-linejoin:miter;stroke-miterlimit:10;"/></g><!--link C to G3--><g class="link" data-entity-1="ent0001" data-entity-2="ent0009" data-link-type="dependency" data-source-line="61" id="lnk30"><path d="M78.8594,1483.0313 C78.8594,1738.5938 78.8594,2707.8125 78.8594,2707.8125 C78.8594,2707.8125 608.2656,2707.8125 844.875,2707.8125" fill="none" id="C-to-G3" style="stroke:#000000;stroke-width:1.5625;"/><polygon fill="#000000" points="852.6875,2707.8125,838.625,2701.5625,844.875,2707.8125,838.625,2714.0625,852.6875,2707.8125" style="stroke:#000000;stroke-width:1.5625;stroke-linejoin:miter;stroke-miterlimit:10;"/></g><!--link C to G4--><g class="link" data-entity-1="ent0001" data-entity-2="ent0010" data-link-type="dependency" data-source-line="62" id="lnk31"><path d="M44.4844,1483.1094 C44.4844,1761.0937 44.4844,2890.625 44.4844,2890.625 C44.4844,2890.625 584.3594,2890.625 833.5938,2890.625" fill="none" id="C-to-G4" style="stroke:#000000;stroke-width:1.5625;"/><polygon fill="#000000" points="841.4063,2890.625,827.3438,2884.375,833.5938,2890.625,827.3438,2896.875,841.4063,2890.625" style="stroke:#000000;stroke-width:1.5625;stroke-linejoin:miter;stroke-miterlimit:10;"/></g><!--link G to C1--><g class="link" data-entity-1="ent0002" data-entity-2="ent0012" data-link-type="dependency" data-source-line="63" id="lnk32"><path d="M508.5469,1589.3906 C508.5469,1662.0625 508.5469,1773.4375 508.5469,1773.4375 C508.5469,1773.4375 718.8906,1773.4375 852.6875,1773.4375" fill="none" id="G-to-C1" style="stroke:#000000;stroke-width:1.5625;"/><polygon fill="#000000" points="860.5,1773.4375,846.4375,1767.1875,852.6875,1773.4375,846.4375,1779.6875,860.5,1773.4375" style="stroke:#000000;stroke-width:1.5625;stroke-linejoin:miter;stroke-miterlimit:10;"/></g><!--link G to C2--><g class="link" data-entity-1="ent0002" data-entity-2="ent0013" data-link-type="dependency" data-source-line="64" id="lnk33"><path d="M552.0625,1563.3906 C637.1406,1563.3906 759.2656,1563.3906 850.0469,1563.3906" fill="none" id="G-to-C2" style="stroke:#000000;stroke-width:1.5625;"/><polygon fill="#000000" points="857.8594,1563.3906,843.7969,1557.1406,850.0469,1563.3906,843.7969,1569.6406,857.8594,1563.3906" style="stroke:#000000;stroke-width:1.5625;stroke-linejoin:miter;stroke-miterlimit:10;"/></g><!--link G to C3--><g class="link" data-entity-1="ent0002" data-entity-2="ent0014" data-link-type="dependency" data-source-line="65" id="lnk34"><path d="M552.3906,1495.3281 C649.8438,1495.3281 794.4844,1495.3281 794.4844,1495.3281 C794.4844,1495.3281 794.4844,1455.7969 794.4844,1431.375" fill="none" id="G-to-C3" style="stroke:#000000;stroke-width:1.5625;"/><polygon fill="#000000" points="794.4844,1423.5625,788.2344,1437.625,794.4844,1431.375,800.7344,1437.625,794.4844,1423.5625" style="stroke:#000000;stroke-width:1.5625;stroke-linejoin:miter;stroke-miterlimit:10;"/></g><!--link G to C4--><g class="link" data-entity-1="ent0002" data-entity-2="ent0015" data-link-type="dependency" data-source-line="66" id="lnk35"><path d="M464.7969,1589.3437 C464.7969,1743.875 464.7969,2137.5 464.7969,2137.5 C464.7969,2137.5 663.0469,2137.5 809.9531,2137.5" fill="none" id="G-to-C4" style="stroke:#000000;stroke-width:1.5625;"/><polygon fill="#000000" points="817.7656,2137.5,803.7031,2131.25,809.9531,2137.5,803.7031,2143.75,817.7656,2137.5" style="stroke:#000000;stroke-width:1.5625;stroke-linejoin:miter;stroke-miterlimit:10;"/></g><!--link G to C5--><g class="link" data-entity-1="ent0002" data-entity-2="ent0016" data-link-type="dependency" data-source-line="67" id="lnk36"><path d="M552.3125,1576.0156 C655.75,1576.0156 814.7969,1576.0156 814.7969,1576.0156 C814.7969,1576.0156 814.7969,1868.4844 814.7969,1935.3437" fill="none" id="G-to-C5" style="stroke:#000000;stroke-width:1.5625;"/><polygon fill="#000000" points="814.7969,1943.1562,821.0469,1929.0937,814.7969,1935.3437,808.5469,1929.0937,814.7969,1943.1562" style="stroke:#000000;stroke-width:1.5625;stroke-linejoin:miter;stroke-miterlimit:10;"/></g><!--link G to C6--><g class="link" data-entity-1="ent0002" data-entity-2="ent0018" data-link-type="dependency" data-source-line="68" id="lnk37"><path d="M552.5938,1523.0469 C569.4531,1523.0469 581.9844,1523.0469 581.9844,1523.0469 C581.9844,1523.0469 581.9844,300.8281 581.9844,300.8281 C581.9844,300.8281 716.7813,300.8281 827.3438,300.8281" fill="none" id="G-to-C6" style="stroke:#000000;stroke-width:1.5625;"/><polygon fill="#000000" points="835.1563,300.8281,821.0938,294.5781,827.3438,300.8281,821.0938,307.0781,835.1563,300.8281" style="stroke:#000000;stroke-width:1.5625;stroke-linejoin:miter;stroke-miterlimit:10;"/></g><!--link C to C7--><g class="link" data-entity-1="ent0001" data-entity-2="ent0019" data-link-type="dependency" data-source-line="69" id="lnk38"><path d="M44.4844,1361.25 C44.4844,1138.4844 44.4844,378.125 44.4844,378.125 C44.4844,378.125 254.1875,378.125 376.5313,378.125" fill="none" id="C-to-C7" style="stroke:#000000;stroke-width:1.5625;"/><polygon fill="#000000" points="384.3438,378.125,370.2813,371.875,376.5313,378.125,370.2813,384.375,384.3438,378.125" style="stroke:#000000;stroke-width:1.5625;stroke-linejoin:miter;stroke-miterlimit:10;"/></g><!--link C to C10--><g class="link" data-entity-1="ent0001" data-entity-2="ent0022" data-link-type="dependency" data-source-line="70" id="lnk39"><path d="M148.375,1409.375 C228.5156,1409.375 349.1719,1409.375 349.1719,1409.375 C349.1719,1409.375 349.1719,397.1719 349.1719,225.8437" fill="none" id="C-to-C10" style="stroke:#000000;stroke-width:1.5625;"/><polygon fill="#000000" points="349.1719,218.0312,342.9219,232.0937,349.1719,225.8437,355.4219,232.0937,349.1719,218.0312" style="stroke:#000000;stroke-width:1.5625;stroke-linejoin:miter;stroke-miterlimit:10;"/></g><!--link G to C11--><g class="link" data-entity-1="ent0002" data-entity-2="ent0024" data-link-type="dependency" data-source-line="71" id="lnk40"><path d="M492.9219,1466.9688 C492.9219,1374.7969 492.9219,1210.9375 492.9219,1210.9375 C492.9219,1210.9375 677.7656,1210.9375 816.2344,1210.9375" fill="none" id="G-to-C11" style="stroke:#000000;stroke-width:1.5625;"/><polygon fill="#000000" points="824.0469,1210.9375,809.9844,1204.6875,816.2344,1210.9375,809.9844,1217.1875,824.0469,1210.9375" style="stroke:#000000;stroke-width:1.5625;stroke-linejoin:miter;stroke-miterlimit:10;"/></g><!--link G to C12--><g class="link" data-entity-1="ent0002" data-entity-2="ent0026" data-link-type="dependency" data-source-line="72" id="lnk41"><path d="M438.2344,1467 C438.2344,1333.9063 438.2344,1029.6875 438.2344,1029.6875 C438.2344,1029.6875 671.1563,1029.6875 826.3281,1029.6875" fill="none" id="G-to-C12" style="stroke:#000000;stroke-width:1.5625;"/><polygon fill="#000000" points="834.1406,1029.6875,820.0781,1023.4375,826.3281,1029.6875,820.0781,1035.9375,834.1406,1029.6875" style="stroke:#000000;stroke-width:1.5625;stroke-linejoin:miter;stroke-miterlimit:10;"/></g><!--link C to C13--><g class="link" data-entity-1="ent0001" data-entity-2="ent0027" data-link-type="dependency" data-source-line="73" id="lnk42"><path d="M78.8594,1360.75 C78.8594,1181.0938 78.8594,667.1875 78.8594,667.1875 C78.8594,667.1875 594.2344,667.1875 835.3906,667.1875" fill="none" id="C-to-C13" style="stroke:#000000;stroke-width:1.5625;"/><polygon fill="#000000" points="843.2031,667.1875,829.1406,660.9375,835.3906,667.1875,829.1406,673.4375,843.2031,667.1875" style="stroke:#000000;stroke-width:1.5625;stroke-linejoin:miter;stroke-miterlimit:10;"/></g><!--link C to C14--><g class="link" data-entity-1="ent0001" data-entity-2="ent0025" data-link-type="dependency" data-source-line="74" id="lnk43"><path d="M113.2344,1361.0469 C113.2344,1213.4687 113.2344,848.4375 113.2344,848.4375 C113.2344,848.4375 537.5469,848.4375 785.25,848.4375" fill="none" id="C-to-C14" style="stroke:#000000;stroke-width:1.5625;"/><polygon fill="#000000" points="793.0625,848.4375,779,842.1875,785.25,848.4375,779,854.6875,793.0625,848.4375" style="stroke:#000000;stroke-width:1.5625;stroke-linejoin:miter;stroke-miterlimit:10;"/></g><!--link C7 to C6--><g class="link" data-entity-1="ent0019" data-entity-2="ent0018" data-link-type="dependency" data-source-line="75" id="lnk44"><path d="M464.7969,334.6406 C464.7969,306.1563 464.7969,274.1719 464.7969,274.1719 C464.7969,274.1719 680.2813,274.1719 827.6875,274.1719" fill="none" id="C7-to-C6" style="stroke:#000000;stroke-width:1.5625;stroke-dasharray:10.9375,10.9375;"/><polygon fill="#000000" points="835.5,274.1719,821.4375,267.9219,827.6875,274.1719,821.4375,280.4219,835.5,274.1719" style="stroke:#000000;stroke-width:1.5625;stroke-linejoin:miter;stroke-miterlimit:10;"/><text fill="#000000" font-family="'Times New Roman'" font-size="23.4375" lengthAdjust="spacing" textLength="113.5941" x="505.8594" y="297.4896">&#171;include&#187;</text></g><!--link C7 to C9--><g class="link" data-entity-1="ent0019" data-entity-2="ent0020" data-link-type="dependency" data-source-line="76" id="lnk45"><path d="M546.1875,371.6094 C645.8281,371.6094 802.2969,371.6094 802.2969,371.6094 C802.2969,371.6094 802.2969,172.6094 802.2969,124.1406" fill="none" id="C7-to-C9" style="stroke:#000000;stroke-width:1.5625;stroke-dasharray:10.9375,10.9375;"/><polygon fill="#000000" points="802.2969,116.3281,796.0469,130.3906,802.2969,124.1406,808.5469,130.3906,802.2969,116.3281" style="stroke:#000000;stroke-width:1.5625;stroke-linejoin:miter;stroke-miterlimit:10;"/><text fill="#000000" font-family="'Times New Roman'" font-size="23.4375" lengthAdjust="spacing" textLength="113.5941" x="687.8281" y="394.9271">&#171;include&#187;</text></g><!--link C8 to C9--><g class="link" data-entity-1="ent0021" data-entity-2="ent0020" data-link-type="dependency" data-source-line="77" id="lnk46"><path d="M1106.9844,454.5469 C1106.9844,398.25 1106.9844,198.6563 1106.9844,133.6719" fill="none" id="C8-to-C9" style="stroke:#000000;stroke-width:1.5625;stroke-dasharray:10.9375,10.9375;"/><polygon fill="#000000" points="1106.9844,125.8594,1100.7344,139.9219,1106.9844,133.6719,1113.2344,139.9219,1106.9844,125.8594" style="stroke:#000000;stroke-width:1.5625;stroke-linejoin:miter;stroke-miterlimit:10;"/><text fill="#000000" font-family="'Times New Roman'" font-size="23.4375" lengthAdjust="spacing" textLength="110.3096" x="1108.5469" y="313.5208">&#171;extend&#187;</text></g><!--link C8 to F--><g class="link" data-entity-1="ent0021" data-entity-2="ent0003" data-link-type="dependency" data-source-line="78" id="lnk47"><path d="M1116.7188,468.75 C1189.5781,468.75 1266.3281,468.75 1329.1875,468.75" fill="none" id="C8-to-F" style="stroke:#000000;stroke-width:1.5625;stroke-dasharray:10.9375,10.9375;"/><polygon fill="#000000" points="1337,468.75,1322.9375,462.5,1329.1875,468.75,1322.9375,475,1337,468.75" style="stroke:#000000;stroke-width:1.5625;stroke-linejoin:miter;stroke-miterlimit:10;"/></g><!--link C9 to P--><g class="link" data-entity-1="ent0020" data-entity-2="ent0004" data-link-type="dependency" data-source-line="79" id="lnk48"><path d="M1127.8281,106.25 C1189.0156,106.25 1249.25,106.25 1305.2344,106.25" fill="none" id="C9-to-P" style="stroke:#000000;stroke-width:1.5625;stroke-dasharray:10.9375,10.9375;"/><polygon fill="#000000" points="1313.0469,106.25,1298.9844,100,1305.2344,106.25,1298.9844,112.5,1313.0469,106.25" style="stroke:#000000;stroke-width:1.5625;stroke-linejoin:miter;stroke-miterlimit:10;"/></g><!--link C14 to C11--><g class="link" data-entity-1="ent0025" data-entity-2="ent0024" data-link-type="dependency" data-source-line="80" id="lnk49"><path d="M1114.7969,865.9219 C1114.7969,938.3281 1114.7969,1210.9375 1114.7969,1210.9375 C1114.7969,1210.9375 1117.0313,1210.9375 1108,1210.9375" fill="none" id="C14-to-C11" style="stroke:#000000;stroke-width:1.5625;stroke-dasharray:10.9375,10.9375;"/><polygon fill="#000000" points="1100.1875,1210.9375,1114.25,1217.1875,1108,1210.9375,1114.25,1204.6875,1100.1875,1210.9375" style="stroke:#000000;stroke-width:1.5625;stroke-linejoin:miter;stroke-miterlimit:10;"/><text fill="#000000" font-family="'Times New Roman'" font-size="23.4375" lengthAdjust="spacing" textLength="110.3096" x="1116.3594" y="1069.0521">&#171;extend&#187;</text></g><?plantuml-src XLLBJzHG5DxtLvoCYO45E9qPNeQGI1DOg0G54nTkBksblPdstabxoyF7ogKXIenn2nAZ65cfCKvZN9JmF_fFFEtSMzfX6BgOd9ppVUSxhtQYBkCz4f80jeZTTKCHSySIlWZXrahn6569Y3pYY5t6NTWcVaGh4OTkazYNAuBBDH9GQ6ooW4QmHdVXiGW8Rup6Rh3d5CoPQh37qD6iU7p6gTplKH2Xz4Gbm8L38zg3sIe_9BoREqspcgE7hH6NRiXzdq98RKcuwrVhlnU6ObUrtIoUuU2cn-mkfr44PYL4R2d2vHi7Du29qA7XTI8599_9TO0ueZQ9wCrY6ZXMJe762QgXtIoeWMC55MYSOBcOcoKleMD5IzXLMSEdsnAaW92vdWI7vLWck64Kcu36VIyzjZtmqYFkDe14O0r5Tj8JV1DymehegewUlxiuvh2J9Mz0faSCR2yzurw1MT4OAqi-87TpyywQctxY5P5rmuAfgPTBc4zD3D-bF4tN4rd_XCE4a_v1gkt5t9rim0i3z2vpwVFN6EDUrZ_hFUCJJwofrQOvEQZF787SYxF-PwcHBOLirP5OAuC0Kqei8kkVnXhVLlXs5M_bseCI97XPyXwYYsFDw2X6ntXLRUzx0BTXZ-87fcYnbwi4GxqLg2xB-ly2s5WV9BHqSrQjkGTPSc23zAZ0d_GdzXbboQ6cg2wjMfTFKTps6CXSG68r8uYgNQlMxeQ0A3tcNgrqpL3jMfrXAJTBJXYaVo682NJJhoLZHZ5cgWDwYA3YGegw28f9WPf30teK5nNucDLbMV9sGD69PrNYsQ7Tzd_BEd1E0UTgmxzKXVF3_Bvhd0N5MQWl3CyUAxRn20uuo13B0pVzqTEiUSMQholXrfpq5nkXOpRrjflLyInZOb40SpbK-vYB9IV31nGIiBFaD8QjIuBENDvHxP1Mi-ICmNxwBKPc_yj8fjwnsRdAbFYNGMMb94tIDsYsHlS-86gqFZopZMslukTXAN-RhO7HqaPR6ns5mPT26IrjjBLHOcQqCQlek7Xbu9HreZAJsIgZxTBg6DOSJ4_dIU0kB2uoRlknGvUMIl_2i7yUBjrqJrBkA2-wLmmCv0P-2yrE0JJD6l8_?></g></svg>